<svg width="80" height="80" viewBox="0 0 80 80" fill="none" xmlns="http://www.w3.org/2000/svg">
<g clip-path="url(#clip0_55_252)">
<path d="M40 59.9912C51.0457 59.9912 60 51.0369 60 39.9912C60 28.9455 51.0457 19.9912 40 19.9912C28.9543 19.9912 20 28.9455 20 39.9912C20 51.0369 28.9543 59.9912 40 59.9912Z" fill="white"/>
<path d="M40.0001 20.0001H74.6355C71.1258 13.919 66.0769 8.86924 59.9966 5.35841C53.9162 1.84759 47.0187 -0.000489784 39.9975 9.73664e-08C32.9763 0.000489979 26.079 1.84953 19.9992 5.3612C13.9193 8.87288 8.87113 13.9234 5.3623 20.0049L22.68 50.0001L22.6955 49.9961C20.9338 46.9582 20.0041 43.5096 20.0002 39.9978C19.9962 36.4861 20.9182 33.0354 22.673 29.9936C24.4278 26.9517 26.9536 24.4263 29.9956 22.6718C33.0376 20.9173 36.4884 19.9957 40.0001 20.0001Z" fill="url(#paint0_linear_55_252)"/>
<path d="M40.0003 55.8332C48.7448 55.8332 55.8337 48.7444 55.8337 39.9998C55.8337 31.2553 48.7448 24.1665 40.0003 24.1665C31.2558 24.1665 24.167 31.2553 24.167 39.9998C24.167 48.7444 31.2558 55.8332 40.0003 55.8332Z" fill="#1A73E8"/>
<path d="M57.319 50.005L40.0013 80.0002C47.0224 80.0012 53.9201 78.1536 60.0007 74.6432C66.0813 71.1328 71.1305 66.0834 74.6406 60.0027C78.1507 53.9219 79.998 47.0242 79.9968 40.0031C79.9955 32.9819 78.1458 26.0849 74.6335 20.0054H39.9983L39.9941 20.0209C43.5059 20.0141 46.9573 20.9333 50.0006 22.6857C53.0438 24.4381 55.5713 26.9618 57.3282 30.0025C59.0851 33.0432 60.0093 36.4933 60.0077 40.005C60.006 43.5167 59.0787 46.966 57.319 50.005Z" fill="url(#paint1_linear_55_252)"/>
<path d="M22.6811 50.0049L5.36346 20.0098C1.852 26.0898 0.00319137 32.9871 0.00292972 40.0083C0.00266806 47.0294 1.85096 53.9269 5.36197 60.0072C8.87298 66.0874 13.9229 71.1361 20.0041 74.6456C26.0852 78.1552 32.9831 80.0017 40.0043 79.9998L57.322 50.0046L57.3108 49.9933C55.5607 53.0379 53.039 55.5673 49.9997 57.3266C46.9604 59.0858 43.5111 60.0128 39.9993 60.014C36.4876 60.0152 33.0376 59.0905 29.9972 57.3333C26.9567 55.5761 24.4332 53.0483 22.6811 50.0049Z" fill="url(#paint2_linear_55_252)"/>
</g>
<defs>
<linearGradient id="paint0_linear_55_252" x1="5.3623" y1="25.0001" x2="74.6355" y2="25.0001" gradientUnits="userSpaceOnUse">
<stop stop-color="#D93025"/>
<stop offset="1" stop-color="#EA4335"/>
</linearGradient>
<linearGradient id="paint1_linear_55_252" x1="34.5366" y1="79.4654" x2="69.1733" y2="19.473" gradientUnits="userSpaceOnUse">
<stop stop-color="#FCC934"/>
<stop offset="1" stop-color="#FBBC04"/>
</linearGradient>
<linearGradient id="paint2_linear_55_252" x1="44.3303" y1="77.5023" x2="9.69364" y2="17.5098" gradientUnits="userSpaceOnUse">
<stop stop-color="#1E8E3E"/>
<stop offset="1" stop-color="#34A853"/>
</linearGradient>
<clipPath id="clip0_55_252">
<rect width="80" height="80" fill="white"/>
</clipPath>
</defs>
</svg>
