<svg width="80" height="80" viewBox="0 0 80 80" fill="none" xmlns="http://www.w3.org/2000/svg">
<g clip-path="url(#clip0_55_266)">
<path d="M21.7881 46.626L24.3085 53.3968L28.0954 58.3484L36.9861 59.9927L41.2395 60.3427L48.5015 58.5845L51.6299 55.6791L21.7881 46.626Z" fill="#09204D"/>
<path d="M59.4091 36.6445L58.5184 33.7822L55.9732 29.1276L53.0616 26.1532L49.9703 24.0139L47.2868 22.9938L44.0666 21.8837L38.7646 21.5566L35.4205 22.1407L32.6926 22.9538L27.8519 25.6992L24.8267 28.9706L22.0369 33.3611L20.9398 37.0976L20.7344 42.7673L21.7809 46.6328L24.0888 51.0333L25.7154 53.1586L27.9665 55.1588L30.7769 57.0011L34.2428 58.4623L40.0423 59.1213L43.0716 59.2033L47.5531 57.9802L51.5598 55.8489L54.137 53.7177L56.1363 51.4074L58.9622 46.0467L59.5856 42.3792L59.4091 36.6445Z" fill="#09204D"/>
<path d="M38.87 24.1328L36.4951 26.4151L40.3687 27.9373L43.2504 24.4739L38.87 24.1328Z" fill="#0E56D7"/>
<path d="M40.3662 27.9336L47.8656 27.7126L43.2479 24.4702L40.3662 27.9336Z" fill="#1053D1"/>
<path d="M47.3123 24.4429L43.252 24.4669L47.8697 27.7093L52.1396 27.4392L47.3123 24.4429Z" fill="#0B4FBF"/>
<path d="M52.1326 27.4436L49.7051 24.2002L53.0646 26.1504L52.1326 27.4436Z" fill="#0B48B0"/>
<path d="M55.3527 29.4337L52.1387 27.4475L53.0707 26.1543L55.3527 29.4337Z" fill="#0C45A7"/>
<path d="M52.1325 27.4434L51.5947 29.6656L54.5342 30.8048L52.1325 27.4434Z" fill="#0F46AF"/>
<path d="M52.1328 27.4434L55.3469 29.4296L54.5346 30.8048L52.1328 27.4434Z" fill="#0C47AD"/>
<path d="M47.8701 27.7134L52.14 27.4434L51.6023 29.6656L47.8701 27.7134Z" fill="#0E4FC3"/>
<path d="M47.8701 27.7134L44.4961 30.6738L48.8382 32.734L47.8701 27.7134Z" fill="#174DCA"/>
<path d="M40.3662 27.9334L47.8656 27.7124L44.4916 30.6728L40.3662 27.9334Z" fill="#1650D4"/>
<path d="M51.5957 29.6636L53.6372 33.5021L54.5352 30.8027L51.5957 29.6636Z" fill="#1246B2"/>
<path d="M53.6396 33.504L54.5376 30.8047L56.6772 35.7353L53.6396 33.504Z" fill="#133EA1"/>
<path d="M54.5371 30.8037L57.7976 33.118L56.6767 35.7343L54.5371 30.8037Z" fill="#103D98"/>
<path d="M55.3525 29.4335L55.9821 29.1284L57.8007 33.1229L55.3525 29.4335Z" fill="#0B3785"/>
<path d="M57.7991 33.1244L58.5257 33.7845L55.9805 29.1299L57.7991 33.1244Z" fill="#0B3685"/>
<path d="M57.7986 33.1241L55.3504 29.4347L54.5381 30.8099L57.7986 33.1241ZM53.0684 26.1553L55.3504 29.4347L55.98 29.1346L53.0684 26.1553Z" fill="#0C3B91"/>
<path d="M59.254 38.875L58.5273 33.7764L59.4181 36.6387L59.2426 38.875H59.254Z" fill="#0B3279"/>
<path d="M57.7988 33.124L59.2521 38.8827L58.5254 33.7841L57.7988 33.124Z" fill="#0F388D"/>
<path d="M56.6738 35.7345L59.2479 38.8769L57.7947 33.1182L56.6738 35.7345Z" fill="#0D3481"/>
<path d="M59.2441 38.875L59.4196 36.6387L59.5961 42.3734L59.2555 38.875H59.2441Z" fill="#0B2E71"/>
<path d="M58.8203 43.4154L59.5923 42.3813L59.2517 38.8828L58.8203 43.4154Z" fill="#0E2F77"/>
<path d="M58.9649 46.0459L58.3477 46.3339L59.5883 42.3784L58.9649 46.0459Z" fill="#0E2969"/>
<path d="M58.3457 46.3359L59.5863 42.3804L58.8143 43.4145L58.3457 46.3359Z" fill="#0C2A69"/>
<path d="M58.8204 43.4154L59.2518 38.8828L57.9297 40.394L58.8204 43.4154Z" fill="#123180"/>
<path d="M58.3464 46.3359L58.815 43.4146L56.2646 47.5681L58.3464 46.3359Z" fill="#112B70"/>
<path d="M56.6738 35.7344L59.2479 38.8768L57.9258 40.388L56.6738 35.7344Z" fill="#12378C"/>
<path d="M58.8205 43.4154L57.9298 40.394L56.585 44.1145L58.8205 43.4154Z" fill="#122E7B"/>
<path d="M56.1377 51.4066L58.3464 46.334L56.2801 50.0314L56.1377 51.4066Z" fill="#11296C"/>
<path d="M56.2821 50.0261L58.3484 46.3286L56.2666 47.5608L56.2821 50.0261Z" fill="#142A72"/>
<path d="M58.3458 46.336L56.1371 51.4056L58.963 46.0449L58.3458 46.336ZM54.1389 53.7189L56.1371 51.4086L56.2795 50.0334L54.1389 53.7189ZM51.5586 55.8501L54.1389 53.7189L51.4141 54.933L51.5586 55.8501Z" fill="#112768"/>
<path d="M36.5162 57.3272L33.9121 57.9453L33.9916 56.1831L36.5162 57.3272Z" fill="#1C226A"/>
<path d="M22.0464 33.3542L22.7647 33.0962L20.9492 37.0907L22.0464 33.3542Z" fill="#182B7A"/>
<path d="M20.9414 37.0946L22.3162 36.8466L22.7569 33.1001L20.9414 37.0946Z" fill="#1F308D"/>
<path d="M21.024 41.8952L20.9414 37.0976L22.3162 36.8496L21.024 41.8952Z" fill="#1E2B7F"/>
<path d="M51.5963 29.6639L48.8323 32.7323L53.6379 33.5024L51.5963 29.6639ZM27.4756 26.5175L31.0034 24.1782L27.8544 25.6964L27.4756 26.5175Z" fill="#1346B5"/>
<path d="M27.8574 25.6931L32.6981 22.9478L31.0064 24.1769L27.8574 25.6931Z" fill="#1244AC"/>
<path d="M31.0049 24.1829L35.4244 22.1406L32.6965 22.9537L31.0049 24.1829Z" fill="#0E4AB6"/>
<path d="M47.8703 27.7135L48.8384 32.7341L51.6025 29.6657L47.8703 27.7135ZM33.6992 23.942L37.8174 22.3418L35.427 22.1338L33.6992 23.942Z" fill="#0E4BBA"/>
<path d="M38.7669 21.5527L35.4229 22.1368L37.8133 22.3448L38.7669 21.5527Z" fill="#0A4EBC"/>
<path d="M41.9355 22.3029L37.8193 22.3419L38.773 21.5498" fill="#0C54CC"/>
<path d="M49.7076 24.203L47.3079 24.4501L52.1352 27.4504L49.7076 24.203ZM41.9326 22.3118L47.2924 22.9959L44.0722 21.8857L41.9326 22.3118Z" fill="#0B4BB4"/>
<path d="M49.7072 24.2028L47.292 22.9937L49.9755 24.0138L49.7072 24.2028Z" fill="#0C3889"/>
<path d="M21.7877 46.6258L23.3761 47.8889L21.0332 41.8882L21.7877 46.6258ZM43.6584 58.5573L45.0518 55.3789L39.9748 56.7L43.6584 58.5573ZM45.0518 55.3789L49.2959 56.52L49.5529 53.3396L45.0518 55.3789Z" fill="#202575"/>
<path d="M51.4209 54.927L49.5527 53.3448L54.0662 50.4385L51.4209 54.927Z" fill="#1B2773"/>
<path d="M54.0623 50.4364L51.417 54.925L54.1418 53.7108L56.2824 50.0254L54.0623 50.4364Z" fill="#15276D"/>
<path d="M49.9755 24.0128L49.7072 24.2018L53.0667 26.1521L49.9755 24.0128ZM47.3075 24.4489L49.7072 24.2018L47.292 22.9927L47.3075 24.4489Z" fill="#0C409D"/>
<path d="M38.7666 21.5527L41.929 22.3058L44.0686 21.8798L38.7666 21.5527ZM47.2889 22.9899L41.929 22.3058L47.3043 24.4461L47.2889 22.9899Z" fill="#0B4CB7"/>
<path d="M41.9355 22.3027L43.2505 24.467L47.3109 24.443L41.9355 22.3027Z" fill="#0B55CE"/>
<path d="M41.9355 22.3027L43.2505 24.467L38.8701 24.126L41.9355 22.3027Z" fill="#0A52C5"/>
<path d="M37.8174 22.3427L38.8681 24.1269L41.9335 22.3037L37.8174 22.3427Z" fill="#0951C4"/>
<path d="M33.6992 23.9429L37.8174 22.3467L38.8681 24.1309L33.6992 23.9429Z" fill="#0B50C4"/>
<path d="M31.0049 24.1828L33.6967 23.9448L35.4244 22.1445L31.0049 24.1828ZM33.6967 23.9448L36.4906 26.4151L38.8645 24.1328L33.6967 23.9448Z" fill="#0F4DBF"/>
<path d="M33.699 23.9429L29.1504 28.0764L31.0072 24.1809L33.699 23.9429Z" fill="#1546B6"/>
<path d="M29.1475 28.0735L32.0498 28.5405L33.696 23.9399L29.1475 28.0735Z" fill="#1549BD"/>
<path d="M32.0479 28.5434L33.6941 23.9429L36.4881 26.4132L32.0479 28.5434Z" fill="#144BC3"/>
<path d="M24.833 28.9634L25.0095 30.6257L27.4794 26.5151L24.833 28.9634Z" fill="#173794"/>
<path d="M22.7588 33.1042L24.8303 28.9717L25.0068 30.6339L22.7588 33.1042Z" fill="#192F84"/>
<path d="M25.0088 30.6339L27.4787 26.5234L29.1497 28.0796L25.0088 30.6339Z" fill="#1A389B"/>
<path d="M24.8532 34.1943L25.0029 30.6299L22.7549 33.1002L24.8532 34.1943Z" fill="#1D3089"/>
<path d="M24.8535 34.1943L25.0032 30.6299L27.921 32.9252L24.8535 34.1943Z" fill="#1E389F"/>
<path d="M27.9295 32.9243L29.1526 28.0747L25.0117 30.629L27.9295 32.9243Z" fill="#1C40AF"/>
<path d="M27.9297 32.9243L29.1528 28.0747L32.0551 28.5418L27.9297 32.9243Z" fill="#1E41B7"/>
<path d="M22.3145 36.8446L22.7552 33.0981L24.8535 34.1923L22.3145 36.8446Z" fill="#192C7D"/>
<path d="M43.6593 58.5674L47.5617 57.9803L49.2967 56.5301L43.6593 58.5674ZM20.7461 42.7654L21.0341 41.8933L20.9515 37.0927L20.7461 42.7654ZM22.3263 36.8477L21.0341 41.8933L23.377 47.894L22.2303 40.9432L22.3263 36.8477Z" fill="#162467"/>
<path d="M23.3672 47.896L25.3004 48.1591L23.9462 45.0967L23.3672 47.896Z" fill="#1A236A"/>
<path d="M51.4208 54.9267L49.2956 56.5269L47.5606 57.9771L51.5673 55.8458L51.4208 54.9267ZM40.0467 59.1162L43.076 59.1983L47.5575 57.9751L43.6551 58.5622L40.0467 59.1162ZM25.1738 51.3733L27.2051 51.7513L25.3028 48.1509L25.1738 51.3733Z" fill="#132668"/>
<path d="M33.9978 56.1868L30.5578 53.6205L29.1283 54.9537L33.9183 57.9491L33.9978 56.1868ZM21.7878 46.6307L24.0956 51.0312L23.3731 47.8938L21.7878 46.6307ZM20.7412 42.7652L21.7878 46.6307L21.0292 41.8931L20.7412 42.7652ZM39.9697 56.7069L33.9937 56.1858L36.5183 57.33L33.9142 57.9481L30.7797 57.0019L34.2455 58.4631L40.045 59.1222L43.6575 58.5681L39.9697 56.7069ZM25.3032 48.1558L23.3742 47.8928L25.1783 51.3752L25.3032 48.1558ZM22.2264 40.9399L23.3742 47.8928L23.9532 45.0925L22.2264 40.9399ZM27.2054 51.7513L25.1742 51.3732L24.0966 51.0282L25.7233 53.1535L27.9743 55.1537L30.7817 57L29.1303 54.9547L27.2054 51.7513Z" fill="#1B2268"/>
<path d="M22.3145 36.8447L25.0424 40.9342L24.8535 34.1924L22.3145 36.8447Z" fill="#212A81"/>
<path d="M22.2324 40.9449L23.955 45.0984L25.0532 40.9409L22.2324 40.9449Z" fill="#21267A"/>
<path d="M23.9453 45.0955L25.0435 40.938L26.4069 44.2234L23.9453 45.0955Z" fill="#262781"/>
<path d="M25.3076 48.1562L30.5384 51.2976L26.4151 44.2217L25.3076 48.1562Z" fill="#272379"/>
<path d="M24.1004 51.0266L25.1811 51.3716L23.3779 47.8892L24.1004 51.0266ZM35.6499 52.8338L33.9985 56.1822L39.9745 56.7033L35.6499 52.8338ZM25.308 48.1522L27.2102 51.7526L29.131 54.953L30.5605 53.6199L30.5388 51.2976L25.308 48.1522Z" fill="#1E226D"/>
<path d="M49.5519 53.3465L49.2949 56.5269L51.42 54.9267L49.5519 53.3465ZM40.4062 52.8895L39.9717 56.7069L45.0508 55.3858L44.8701 51.0942L40.4062 52.8895Z" fill="#222475"/>
<path d="M22.2324 40.945H25.0532L22.3253 36.8555L22.2324 40.945ZM44.8772 51.0962L45.0579 55.3878L49.559 53.3485L44.8772 51.0962Z" fill="#23277D"/>
<path d="M44.8662 51.0965L47.7634 48.5542L49.5479 53.3488L44.8662 51.0965Z" fill="#1E2776"/>
<path d="M49.5521 53.3468L51.7423 46.9189L47.7676 48.5522L49.5521 53.3468Z" fill="#222B86"/>
<path d="M54.0623 50.4365L49.5488 53.3428L51.739 46.915L54.0623 50.4365Z" fill="#192974"/>
<path d="M56.2711 47.566L51.7432 46.9209L54.0665 50.4423L56.2866 50.0313L56.2711 47.566Z" fill="#172A75"/>
<path d="M56.581 44.1054L51.7383 46.9147L56.2662 47.5598L58.8166 43.4053L56.581 44.1054Z" fill="#172D7D"/>
<path d="M22.7582 33.1042L24.8297 28.9717L22.043 33.3622L22.7582 33.1042ZM54.7747 38.2198L56.581 44.1136L57.9227 40.3931L54.7747 38.2198Z" fill="#18338A"/>
<path d="M57.9226 40.385L56.6706 35.7314L54.7715 38.2118L57.9226 40.385Z" fill="#153791"/>
<path d="M51.7402 46.9156L56.583 44.1063L51.8899 42.082L51.7402 46.9156Z" fill="#1B318B"/>
<path d="M51.7402 46.9157L47.3516 42.6191L47.7654 48.5489L51.7402 46.9157Z" fill="#242D8D"/>
<path d="M44.866 51.0964L41.4961 48.2051L47.7632 48.5541L44.866 51.0964Z" fill="#2A2B8F"/>
<path d="M25.3073 48.1562L26.4147 44.2217L23.9531 45.0938L25.3073 48.1562ZM41.5013 48.2012L40.4073 52.8898L44.8691 51.0945L41.5013 48.2012Z" fill="#27267F"/>
<path d="M34.5243 49.1661L31.2814 47.5679L30.5352 51.3013L35.6483 52.8415L40.4074 52.8935L34.5243 49.1661Z" fill="#2D2381"/>
<path d="M40.4075 52.8868L41.4995 48.2002L34.5244 49.1593L40.4075 52.8868Z" fill="#2F2485"/>
<path d="M25.0492 40.9352L26.4478 36.6067L24.8604 34.1934L25.0492 40.9352Z" fill="#233196"/>
<path d="M27.9297 32.9242L34.0708 31.1899L30.8269 37.6117L27.9297 32.9242Z" fill="#293CB7"/>
<path d="M51.7402 46.9156L47.3516 42.6191L51.8898 42.082L51.7402 46.9156Z" fill="#25339C"/>
<path d="M56.5808 44.1056L54.7745 38.2119L51.8877 42.0814L56.5808 44.1056Z" fill="#19348F"/>
<path d="M47.7663 48.5562L42.7471 43.8536L47.3524 42.6265L47.7663 48.5562Z" fill="#2A309A"/>
<path d="M41.502 48.2061L47.769 48.5551L42.7498 43.8525L41.502 48.2061Z" fill="#302B96"/>
<path d="M41.5021 48.2061L38.0703 45.4977L42.75 43.8525L41.5021 48.2061Z" fill="#3630A7"/>
<path d="M27.4755 26.5233L27.8543 25.7002L24.8291 28.9716L27.4755 26.5233ZM53.6398 33.5082L54.7752 38.2198L56.6743 35.7394L53.6398 33.5082Z" fill="#173DA2"/>
<path d="M27.9293 32.9243L30.8265 37.6119L26.4492 36.6068L27.9293 32.9243Z" fill="#2A36A8"/>
<path d="M26.4434 36.6045L30.8206 37.6096L27.8605 42.1272L26.4434 36.6045Z" fill="#312E9F"/>
<path d="M34.0704 31.1941L36.4949 26.4155L32.0547 28.5458L34.0704 31.1941Z" fill="#184DCD"/>
<path d="M25.0498 40.9351L27.8654 42.1292L26.4132 44.2205L25.0498 40.9351Z" fill="#272986"/>
<path d="M27.8672 42.1353L26.415 44.2265L30.5384 51.3024L31.2846 47.5689L27.8672 42.1353Z" fill="#2C2584"/>
<path d="M31.2836 47.566L31.7398 40.9922L27.8662 42.1323L31.2836 47.566Z" fill="#32268B"/>
<path d="M31.2842 47.566L38.0704 45.4968L31.7404 40.9922L31.2842 47.566Z" fill="#372999"/>
<path d="M38.0644 45.4957L37.4028 40.4131L31.7344 40.9912L38.0644 45.4957Z" fill="#392DA5"/>
<path d="M37.4043 40.4149L42.1913 38.6807L42.7455 43.8523L37.4043 40.4149Z" fill="#3338BC"/>
<path d="M34.5244 49.166L41.4995 48.2069L38.0677 45.4985L34.5244 49.166Z" fill="#362896"/>
<path d="M34.5242 49.166L31.2812 47.5678L38.0675 45.4985L34.5242 49.166Z" fill="#35268F"/>
<path d="M34.0703 31.1941L38.2267 31.6202L36.4948 26.4155L34.0703 31.1941Z" fill="#2648D3"/>
<path d="M40.3667 27.9333L36.4932 26.4111L38.2251 31.6158L40.3667 27.9333Z" fill="#1057DC"/>
<path d="M40.3663 27.9336L44.4917 30.6729L38.2246 31.6161L40.3663 27.9336Z" fill="#1653DA"/>
<path d="M38.2197 31.6138L44.3671 34.7732L42.1882 38.6746L38.2197 31.6138Z" fill="#2B46D5"/>
<path d="M44.371 34.7744L44.4907 30.6719L38.2236 31.615L44.371 34.7744Z" fill="#244AD7"/>
<path d="M44.3711 34.7744L44.4908 30.6719L48.833 32.7321L44.3711 34.7744Z" fill="#2547CF"/>
<path d="M38.2196 31.6138L42.1881 38.6746L35.2285 35.2962L38.2196 31.6138Z" fill="#333CC5"/>
<path d="M37.4041 40.4149L42.1911 38.6807L35.2314 35.3022L37.4041 40.4149Z" fill="#3833B6"/>
<path d="M42.1934 38.6749L48.3314 37.5878L44.3722 34.7734L42.1934 38.6749Z" fill="#2A41C6"/>
<path d="M48.83 32.7339L48.3274 37.5905L44.3682 34.7761L48.83 32.7339Z" fill="#2045C1"/>
<path d="M48.8298 32.7339L51.727 36.5474L48.3271 37.5905L48.8298 32.7339Z" fill="#1B43B7"/>
<path d="M53.6396 33.504L48.834 32.7339L51.7312 36.5474L53.6396 33.504Z" fill="#1742AF"/>
<path d="M29.1573 28.0733L31.0151 24.1729L27.4873 26.5121L29.1573 28.0733ZM53.6496 33.502L51.7412 36.5454L54.788 38.2136L53.6496 33.502Z" fill="#1740A9"/>
<path d="M51.8953 42.0851L54.7822 38.2156L51.7354 36.5474L51.8953 42.0851Z" fill="#1B3CA4"/>
<path d="M51.8948 42.0851L51.7348 36.5474L48.335 37.5905L51.8948 42.0851Z" fill="#1F3DAD"/>
<path d="M27.9297 32.924L34.0708 31.1898L32.0551 28.5415L27.9297 32.924ZM42.1937 38.6768L47.3543 42.6213L48.3327 37.5896L42.1937 38.6768Z" fill="#2543C3"/>
<path d="M42.7505 43.8455L47.3559 42.6183L42.1963 38.6738L42.7505 43.8455Z" fill="#2E37B2"/>
<path d="M34.0703 31.1938L35.2356 35.3024L38.2267 31.6199L34.0703 31.1938Z" fill="#2D40C7"/>
<path d="M34.0701 31.1938L30.8262 37.6157L35.2354 35.3024L34.0701 31.1938Z" fill="#3537B8"/>
<path d="M35.237 35.3042L31.7412 40.9949L37.4096 40.4168L35.237 35.3042Z" fill="#3931B0"/>
<path d="M37.4042 40.4149L38.0658 45.4975L42.7455 43.8523L37.4042 40.4149ZM31.7337 40.993L35.2295 35.3022L30.8203 37.6155L31.7337 40.993Z" fill="#3735B8"/>
<path d="M27.8672 42.1352L30.8273 37.6177L31.7408 40.9951L27.8672 42.1352Z" fill="#342892"/>
<path d="M30.7776 57.0074L33.9122 57.9575L29.1221 54.9621L30.7776 57.0074ZM30.5516 53.6289L33.9916 56.1953L35.643 52.8468L30.5299 51.3066L30.5516 53.6289ZM39.9676 56.7163L40.4022 52.8988L35.643 52.8468L39.9676 56.7163ZM45.0447 55.3912L43.6513 58.5696L49.2888 56.5323L45.0447 55.3912Z" fill="#232372"/>
<path d="M25.0498 40.935L26.4483 36.6064L27.8654 42.1291L25.0498 40.935Z" fill="#2A2F96"/>
<path d="M26.4428 36.6043L27.9229 32.9219L24.8564 34.196L26.4428 36.6043ZM48.3239 37.5875L47.3454 42.6191L51.8868 42.082L48.3239 37.5875Z" fill="#2636A5"/>
<path d="M59.6776 42.3851V42.3771L59.498 36.6424V36.6224L58.6083 33.761V33.755L56.0631 29.1004L53.1298 26.096H53.1236L50.0334 23.9588H50.021L47.3375 22.9386H47.3189L44.0987 21.8285H44.077L38.775 21.5015H38.7523L35.4082 22.0865H35.3958L32.67 22.8986H32.6524L27.8118 25.627L24.7876 28.8964L22.0009 33.2859V33.2969L20.9027 37.0334V37.0474L20.6963 42.7171V42.7441L21.7418 46.6066V46.6196L24.0486 51.0202V51.0272L25.6443 53.2054V53.2104L27.8943 55.2107H27.9005L30.711 57.0529H30.7172L34.1831 58.5131H34.2047L40.0042 59.1722H40.0125L43.0408 59.2542H43.0645L47.546 58.03H47.5615L51.5661 55.8998L51.5733 55.8948H51.5785L54.1588 53.7645L56.157 51.4532L56.1642 51.4432L58.9902 46.0825V46.0615L59.6095 42.3961V42.3871L59.6776 42.3851ZM28.0223 55.0967L27.4392 54.5786L28.75 55.5737L28.0223 55.0967ZM36.5291 57.2499L34.4803 56.3218L39.3313 56.7449L36.5291 57.2499ZM37.2753 40.3478L31.8979 40.8959L35.2142 35.4952L37.2753 40.3478ZM35.3989 35.4842L41.9694 38.6736L37.4497 40.3078L35.3989 35.4842ZM37.3249 40.5128L37.9503 45.3134L31.964 41.0559L37.3249 40.5128ZM37.8719 45.4715L31.3695 47.4537L31.8061 41.1529L37.8719 45.4715ZM37.5106 40.5929L42.5484 43.8343L38.1351 45.3865L37.5106 40.5929ZM37.5911 40.4408L42.1118 38.8026L42.6351 43.6872L37.5911 40.4408ZM44.5363 34.7991L48.7257 32.8829L48.253 37.4425L44.5363 34.7991ZM48.1095 37.5505L42.3503 38.5706L44.3959 34.9071L48.1095 37.5505ZM42.1862 38.5076L38.4395 31.8318L44.2514 34.8181L42.1862 38.5076ZM41.9797 38.4886L35.3659 35.2782L38.2084 31.7778L41.9797 38.4886ZM31.7669 40.7809L30.9236 37.6625L34.9933 35.5282L31.7669 40.7809ZM31.2095 47.2997L27.9934 42.1881L31.6368 41.1149L31.2095 47.2997ZM37.7728 45.6805L34.503 49.0649L31.5099 47.5907L37.7728 45.6805ZM42.6145 43.9933L41.4482 48.0638L38.2331 45.5315L42.6145 43.9933ZM42.2987 38.8766L47.16 42.5921L42.825 43.7492L42.2987 38.8766ZM42.3957 38.7346L48.2179 37.7045L47.289 42.4761L42.3957 38.7346ZM48.4285 37.4795L48.895 32.9699L51.5847 36.5103L48.4285 37.4795ZM51.6435 36.6694L51.7921 41.833L48.4728 37.6435L51.6435 36.6694ZM44.461 34.6481L44.5724 30.8156L48.6297 32.7409L44.461 34.6481ZM44.2855 34.6481L38.4953 31.6717L44.398 30.7836L44.2855 34.6481ZM35.2689 35.1252L34.1841 31.2987L38.0556 31.6987L35.2689 35.1252ZM35.1275 35.2682L31.0186 37.4195L34.0406 31.4377L35.1275 35.2682ZM31.6275 40.9409L28.0615 41.991L30.7874 37.8295L31.6275 40.9409ZM30.9824 47.2647L26.5278 44.2083L27.8561 42.2971L30.9824 47.2647ZM31.3416 47.6987L34.3348 49.1729L30.6542 51.1432L31.3416 47.6987ZM38.0721 45.6185L41.2861 48.1548L34.7549 49.0549L38.0721 45.6185ZM42.7889 44.0183L47.5367 48.4628L41.6133 48.1338L42.7889 44.0183ZM42.9148 43.9003L47.2683 42.7401L47.6595 48.3468L42.9148 43.9003ZM48.3768 37.7995L51.724 42.025L47.4572 42.5251L48.3768 37.7995ZM51.819 36.6994L54.6439 38.2506L51.9604 41.84L51.819 36.6994ZM51.8489 36.5213L53.6035 33.73L54.6439 38.0545L51.8489 36.5213ZM51.7199 36.3993L49.0281 32.8569L53.4941 33.572L51.7199 36.3993ZM44.6426 30.6566L47.804 27.8833L48.7113 32.5889L44.6426 30.6566ZM38.3859 31.5107L40.3923 28.0613L44.2566 30.6276L38.3859 31.5107ZM34.1975 31.1267L36.4682 26.6461L38.0928 31.5267L34.1975 31.1267ZM30.8121 37.4425L28.0564 32.9839L33.8972 31.3337L30.8121 37.4425ZM27.8954 41.926L26.5619 36.7304L30.68 37.6755L27.8954 41.926ZM26.4266 44.0483L25.2046 41.1079L27.7282 42.1781L26.4266 44.0483ZM31.1796 47.6087L30.4922 51.0622L26.6733 44.5173L31.1796 47.6087ZM34.4669 49.2939L35.5124 52.7164L30.7523 51.2822L34.4669 49.2939ZM41.3821 48.3108L40.3449 52.7594L34.7621 49.2209L41.3821 48.3108ZM47.548 48.6319L44.8645 50.9872L41.7423 48.3088L47.548 48.6319ZM47.451 42.8501L51.5795 46.8966L47.836 48.4348L47.451 42.8501ZM47.5357 42.6921L51.7952 42.1921L51.6507 46.7266L47.5357 42.6921ZM54.7399 38.4126L56.4408 43.9643L52.0192 42.058L54.7399 38.4126ZM53.7749 33.72L56.5502 35.7592L54.8152 38.0255L53.7749 33.72ZM48.9982 32.6829L51.5785 29.8235L53.4807 33.4L48.9982 32.6829ZM48.8816 32.5538L47.9805 27.8803L51.4546 29.6975L48.8816 32.5538ZM44.4795 30.5736L40.6318 28.0193L47.6255 27.8133L44.4795 30.5736ZM38.2424 31.4137L36.6292 26.5671L40.2365 27.9843L38.2424 31.4137ZM34.0479 31.0357L32.1807 28.5813L36.2958 26.6061L34.0479 31.0357ZM33.9188 31.1517L28.1967 32.7679L32.0404 28.6844L33.9188 31.1517ZM30.6377 37.4915L26.5608 36.5553L27.9397 33.1259L30.6377 37.4915ZM27.7313 41.992L25.1509 40.8969L26.4339 36.9294L27.7313 41.992ZM26.2925 44.1793L24.0724 44.9664L25.0622 41.2159L26.2925 44.1793ZM30.2858 51.0582L25.4017 48.1248L26.4339 44.4503L30.2858 51.0582ZM35.2596 52.8184L30.6387 53.5285L30.6191 51.4202L35.2596 52.8184ZM34.6713 49.367L40.1044 52.8094L35.7085 52.7614L34.6713 49.367ZM41.5483 48.3668L44.7015 51.0732L40.5255 52.7534L41.5483 48.3668ZM47.7287 48.7089L49.3956 53.1854L45.0235 51.0852L47.7287 48.7089ZM47.8773 48.6089L51.5929 47.0807L49.5431 53.0964L47.8773 48.6089ZM51.9748 42.2241L56.3954 44.1303L51.8345 46.7766L51.9748 42.2241ZM54.9339 38.4376L57.8239 40.4308L56.5853 43.8443L54.9339 38.4376ZM54.9019 38.2066L56.639 35.9383L57.7836 40.1948L54.9019 38.2066ZM53.7418 33.482L54.5407 31.0567L56.4615 35.4852L53.7418 33.482ZM53.6211 33.2929L51.7777 29.8365L54.4241 30.8616L53.6211 33.2929ZM48.1745 27.7923L52.0233 27.5482L51.5382 29.5485L48.1745 27.7923ZM40.5544 27.8573L43.2637 24.5999L47.6069 27.6492L40.5544 27.8573ZM40.3944 27.7792L38.999 24.2378L43.0759 24.5558L40.3944 27.7792ZM40.2127 27.7953L36.6488 26.3951L38.8338 24.2948L40.2127 27.7953ZM32.2055 28.3883L33.7382 24.1038L36.3402 26.4041L32.2055 28.3883ZM28.0946 32.6359L29.2165 28.1843L31.8804 28.6134L28.0946 32.6359ZM26.4287 36.4363L24.9899 34.2471L27.7705 33.0969L26.4287 36.4363ZM26.3523 36.6364L25.122 40.4368L24.9569 34.5101L26.3523 36.6364ZM24.9352 41.0369L23.932 44.8374L22.358 41.0369H24.9352ZM22.3178 40.8709L22.4014 37.1414L24.8877 40.8679L22.3178 40.8709ZM26.2832 44.3713L25.281 47.9088L24.0631 45.1514L26.2832 44.3713ZM30.2837 51.2602L27.2565 51.6752L25.5266 48.4028L30.2837 51.2602ZM30.4488 51.4082L30.4684 53.4865L27.4753 51.8173L30.4488 51.4082ZM35.497 52.9604L33.9601 56.0628L30.7667 53.6805L35.497 52.9604ZM35.6766 52.9914L39.7204 56.6099L34.1253 56.1218L35.6766 52.9914ZM35.8747 52.9384L40.3129 52.9874L39.9083 56.5448L35.8747 52.9384ZM44.7871 51.2382L44.9564 55.2567L40.607 52.9094L44.7871 51.2382ZM44.9636 51.2532L49.3501 53.3635L45.1329 55.2737L44.9636 51.2532ZM51.7674 47.1347L53.9452 50.4351L49.7134 53.1594L51.7674 47.1347ZM51.9191 47.0487L56.1116 47.6487L54.0649 50.2991L51.9191 47.0487ZM51.9965 46.8886L56.4821 44.2883L56.19 47.4887L51.9965 46.8886ZM57.9209 40.6879L58.7125 43.3732L56.7257 43.9953L57.9209 40.6879ZM56.8619 36.1073L59.1326 38.8796L57.9663 40.2138L56.8619 36.1073ZM54.7358 31.0577L57.6866 33.1519L56.672 35.5192L54.7358 31.0577ZM51.6951 29.6185L52.1709 27.6532L54.2951 30.6256L51.6951 29.6185ZM47.9351 27.6322L47.419 24.6319L51.8572 27.3862L47.9351 27.6322ZM47.74 27.5322L43.5083 24.5628L47.224 24.5398L47.74 27.5322ZM39.1373 24.0738L41.8982 22.4316L43.0841 24.3818L39.1373 24.0738ZM36.4857 26.3061L33.9292 24.0458L38.6573 24.2178L36.4857 26.3061ZM31.9888 28.4553L29.3341 28.0273L33.4946 24.2468L31.9888 28.4553ZM27.8706 32.7829L25.154 30.6456L29.009 28.2673L27.8706 32.7829ZM27.755 32.9109L24.9486 34.071L25.0849 30.8096L27.755 32.9109ZM24.9476 40.6439L22.4261 36.8644L24.7732 34.4121L24.9476 40.6439ZM23.8546 45.1084L23.3767 47.4207L22.4323 41.679L23.8546 45.1084ZM23.9764 45.3845L25.1582 48.0578L23.4737 47.8298L23.9764 45.3845ZM27.0418 51.6442L25.2603 51.3092L25.3739 48.4868L27.0418 51.6442ZM30.4076 53.6445L29.1422 54.8236L27.4423 51.9923L30.4076 53.6445ZM30.5582 53.7385L33.5978 56.0098L29.2949 54.9196L30.5582 53.7385ZM40.4749 53.0324L44.8098 55.3647L40.062 56.5999L40.4749 53.0324ZM49.4472 53.4915L49.2098 56.4248L45.297 55.3717L49.4472 53.4915ZM53.8007 50.7161L51.3917 54.8096L49.6897 53.3635L53.8007 50.7161ZM56.1745 47.8258L56.1869 49.966L54.26 50.3231L56.1745 47.8258ZM56.6576 44.1803L58.6186 43.5662L56.3851 47.2087L56.6576 44.1803ZM58.0169 40.4158L59.1295 39.1447L58.7724 42.9581L58.0169 40.4158ZM56.7691 35.7292L57.7682 33.398L59.0624 38.5276L56.7691 35.7292ZM54.6439 30.7886L55.3458 29.6015L57.4606 32.7879L54.6439 30.7886ZM54.5221 30.6536L52.4455 27.7532L55.224 29.4695L54.5221 30.6536ZM47.5563 24.5138L49.6577 24.2968L51.7839 27.1382L47.5563 24.5138ZM43.2885 24.3938L42.1315 22.4886L46.8627 24.3728L43.2885 24.3938ZM38.8896 24.0198L37.9606 22.4376L41.6123 22.4016L38.8896 24.0198ZM38.7038 24.0468L34.1046 23.8798L37.7697 22.4606L38.7038 24.0468ZM29.4146 27.7232L31.066 24.2678L33.4544 24.0568L29.4146 27.7232ZM29.1184 27.9393L27.6136 26.5391L30.7905 24.4328L29.1184 27.9393ZM29.0059 28.0693L25.2624 30.3786L27.499 26.6631L29.0059 28.0693ZM24.7742 34.063L22.8957 33.0839L24.9084 30.8726L24.7742 34.063ZM24.7154 34.2241L22.4323 36.6074L22.8287 33.2419L24.7154 34.2241ZM22.132 40.9079L21.1669 41.672L22.2063 37.6165L22.132 40.9079ZM22.1557 41.1079L23.1404 47.0947L21.1226 41.928L22.1557 41.1079ZM25.2046 48.2378L25.0921 51.0512L23.5192 48.0088L25.2046 48.2378ZM27.1419 51.8383L28.7479 54.5096L25.4513 51.5252L27.1419 51.8383ZM33.8982 56.2588L33.829 57.804L29.6262 55.1767L33.8982 56.2588ZM34.0706 56.3248L36.2525 57.3129L34.0024 57.846L34.0706 56.3248ZM39.8804 56.8169L39.9485 58.9842L36.7789 57.377L39.8804 56.8169ZM44.8914 55.5167L43.6053 58.4501L40.2055 56.7369L44.8914 55.5167ZM45.0978 55.4907L49.0085 56.5429L43.8149 58.4201L45.0978 55.4907ZM49.6226 53.5255L51.2792 54.9256L49.3914 56.3498L49.6226 53.5255ZM54.1186 50.5201L56.028 50.1661L51.8417 54.3826L54.1186 50.5201ZM56.3676 49.702L56.3541 47.6147L58.116 46.5716L56.3676 49.702ZM56.5224 47.3167L58.6589 43.8383L58.2656 46.2876L56.5224 47.3167ZM59.2492 39.7958L59.499 42.3561L58.9334 43.1132L59.2492 39.7958ZM57.9467 33.384L58.4349 33.828L58.9241 37.2584L57.9467 33.384ZM55.4696 29.4715L55.9289 29.2474L57.2583 32.1668L55.4696 29.4715ZM52.2525 27.4272L53.0596 26.3081L55.0351 29.1474L52.2525 27.4272ZM52.1266 27.3052L50.0231 24.4928L52.9357 26.1841L52.1266 27.3052ZM47.3881 24.3608L47.3747 23.1387L49.4017 24.1528L47.3881 24.3608ZM47.2126 24.3278L42.5794 22.4836L47.1992 23.0727L47.2126 24.3278ZM38.0484 22.2666L38.7863 21.6535L41.2314 22.2366L38.0484 22.2666ZM34.0231 23.7307L35.4567 22.2306L37.4405 22.4036L34.0231 23.7307ZM33.6526 23.8688L31.4851 24.0598L35.0511 22.4136L33.6526 23.8688ZM27.6807 26.2871L27.9201 25.766L29.9132 24.8069L27.6807 26.2871ZM25.0642 30.3696L24.9187 29.0064L27.0862 27.0062L25.0642 30.3696ZM24.9136 30.6096L23.1156 32.5849L24.7721 29.2844L24.9136 30.6096ZM22.2352 36.7824L21.0875 36.9894L22.6037 33.654L22.2352 36.7824ZM22.197 36.9624L21.0999 41.2479L21.0297 37.1724L22.197 36.9624ZM23.1641 47.6337L21.8595 46.5936L21.234 42.6931L23.1641 47.6337ZM24.993 51.2342L24.1601 50.9692L23.6028 48.5498L24.993 51.2342ZM28.5549 54.5626L25.7909 53.1104L25.346 51.6622L28.5549 54.5626ZM29.0606 55.0227L30.2589 56.5028L26.5949 53.7215L29.0606 55.0227ZM29.5086 55.3017L33.3202 57.685L30.8256 56.9289L29.5086 55.3017ZM36.5012 57.424L39.4634 58.9241L34.3141 57.941L36.5012 57.424ZM40.0569 56.8529L43.3721 58.5241L40.124 59.0242L40.0569 56.8529ZM48.8589 56.7749L47.5171 57.901L44.4878 58.3561L48.8589 56.7749ZM51.3463 55.0887L51.4588 55.7888L49.7186 56.3098L51.3463 55.0887ZM55.8618 50.5721L54.0762 53.6585L51.7983 54.6736L55.8618 50.5721ZM56.3614 50.058L57.5597 47.9128L56.2788 50.8561L56.3614 50.058ZM58.8942 43.4472L59.3463 42.8411L58.6238 45.1594L58.8942 43.4472ZM59.3298 38.8746L59.3236 38.8296L59.369 38.2556L59.4144 39.7427L59.3298 38.8746ZM59.209 38.0295L58.7569 34.8511L59.3174 36.6514L59.209 38.0295ZM57.8672 33.0729L57.0415 31.2577L58.1975 33.3729L57.8672 33.0729ZM55.3757 29.3244L53.7243 26.9531L55.8298 29.1034L55.3757 29.3244ZM49.8621 24.2068L49.9725 24.1298L51.2379 25.0069L49.8621 24.2068ZM49.6949 24.1138L48.8372 23.6847L49.7909 24.0478L49.6949 24.1138ZM42.4535 22.2966L44.0615 21.9765L46.4808 22.8106L42.4535 22.2966ZM41.9292 22.2286L39.74 21.7065L43.4103 21.9325L41.9292 22.2286ZM37.7821 22.2676L36.0749 22.1185L38.4643 21.7005L37.7821 22.2676ZM31.7576 23.7457L32.734 23.0367L34.309 22.5666L31.7576 23.7457ZM30.9556 24.1158L30.1082 24.5238L31.4108 23.7858L30.9556 24.1158ZM27.401 26.4781L26.3957 27.4082L27.5444 26.166L27.401 26.4781ZM22.6924 33.0419L22.2455 33.2019L23.9826 30.4686L22.6924 33.0419ZM22.1103 33.431L22.5923 33.2579L21.3734 35.9413L22.1103 33.431ZM20.9099 40.3948L20.9347 41.888L20.8459 42.16L20.9099 40.3948ZM20.9935 42.2701L21.4332 45.0154L20.8274 42.7751L20.9935 42.2701ZM23.288 47.9488L23.8525 50.3991L22.0494 46.9617L23.288 47.9488ZM25.0993 51.4492L25.4915 52.7274L24.3242 51.2022L25.0993 51.4492ZM33.8559 58.027L34.019 58.2801L32.3056 57.558L33.8559 58.027ZM34.2956 58.3871L34.0891 58.077L37.8161 58.7881L34.2956 58.3871ZM43.4257 58.6871L43.0335 59.1172L40.9879 59.0622L43.4257 58.6871ZM43.6972 58.6461L46.1361 58.2791L43.3349 59.0432L43.6972 58.6461ZM49.3326 56.6049L50.7631 56.1768L48.2447 57.524L49.3326 56.6049ZM51.6239 55.6857L51.5114 54.9857L53.6015 54.0545L51.6239 55.6857ZM56.1508 50.4271L56.0528 51.3722L54.678 52.9614L56.1508 50.4271ZM58.4143 46.3966L58.7673 46.2316L57.1499 49.3099L58.4143 46.3966ZM58.8839 45.9885L58.4875 46.1746L59.2843 43.6342L58.8839 45.9885Z" fill="url(#paint0_radial_55_266)"/>
<path d="M59.6776 42.3851V42.3771L59.498 36.6424V36.6224L58.6083 33.761V33.755L56.0631 29.1004L53.1298 26.096H53.1236L50.0334 23.9588H50.021L47.3375 22.9386H47.3189L44.0987 21.8285H44.077L38.775 21.5015H38.7523L35.4082 22.0865H35.3958L32.67 22.8986H32.6524L27.8118 25.627L24.7876 28.8964L22.0009 33.2859V33.2969L20.9027 37.0334V37.0474L20.6963 42.7171V42.7441L21.7418 46.6066V46.6196L24.0486 51.0202V51.0272L25.6443 53.2054V53.2104L27.8943 55.2107H27.9005L30.711 57.0529H30.7172L34.1831 58.5131H34.2047L40.0042 59.1722H40.0125L43.0408 59.2542H43.0645L47.546 58.03H47.5615L51.5661 55.8998L51.5733 55.8948H51.5785L54.1588 53.7645L56.157 51.4532L56.1642 51.4432L58.9902 46.0825V46.0615L59.6095 42.3961V42.3871L59.6776 42.3851ZM28.0223 55.0967L27.4392 54.5786L28.75 55.5737L28.0223 55.0967ZM36.5291 57.2499L34.4803 56.3218L39.3313 56.7449L36.5291 57.2499ZM37.2753 40.3478L31.8979 40.8959L35.2142 35.4952L37.2753 40.3478ZM35.3989 35.4842L41.9694 38.6736L37.4497 40.3078L35.3989 35.4842ZM37.3249 40.5128L37.9503 45.3134L31.964 41.0559L37.3249 40.5128ZM37.8719 45.4715L31.3695 47.4537L31.8061 41.1529L37.8719 45.4715ZM37.5106 40.5929L42.5484 43.8343L38.1351 45.3865L37.5106 40.5929ZM37.5911 40.4408L42.1118 38.8026L42.6351 43.6872L37.5911 40.4408ZM44.5363 34.7991L48.7257 32.8829L48.253 37.4425L44.5363 34.7991ZM48.1095 37.5505L42.3503 38.5706L44.3959 34.9071L48.1095 37.5505ZM42.1862 38.5076L38.4395 31.8318L44.2514 34.8181L42.1862 38.5076ZM41.9797 38.4886L35.3659 35.2782L38.2084 31.7778L41.9797 38.4886ZM31.7669 40.7809L30.9236 37.6625L34.9933 35.5282L31.7669 40.7809ZM31.2095 47.2997L27.9934 42.1881L31.6368 41.1149L31.2095 47.2997ZM37.7728 45.6805L34.503 49.0649L31.5099 47.5907L37.7728 45.6805ZM42.6145 43.9933L41.4482 48.0638L38.2331 45.5315L42.6145 43.9933ZM42.2987 38.8766L47.16 42.5921L42.825 43.7492L42.2987 38.8766ZM42.3957 38.7346L48.2179 37.7045L47.289 42.4761L42.3957 38.7346ZM48.4285 37.4795L48.895 32.9699L51.5847 36.5103L48.4285 37.4795ZM51.6435 36.6694L51.7921 41.833L48.4728 37.6435L51.6435 36.6694ZM44.461 34.6481L44.5724 30.8156L48.6297 32.7409L44.461 34.6481ZM44.2855 34.6481L38.4953 31.6717L44.398 30.7836L44.2855 34.6481ZM35.2689 35.1252L34.1841 31.2987L38.0556 31.6987L35.2689 35.1252ZM35.1275 35.2682L31.0186 37.4195L34.0406 31.4377L35.1275 35.2682ZM31.6275 40.9409L28.0615 41.991L30.7874 37.8295L31.6275 40.9409ZM30.9824 47.2647L26.5278 44.2083L27.8561 42.2971L30.9824 47.2647ZM31.3416 47.6987L34.3348 49.1729L30.6542 51.1432L31.3416 47.6987ZM38.0721 45.6185L41.2861 48.1548L34.7549 49.0549L38.0721 45.6185ZM42.7889 44.0183L47.5367 48.4628L41.6133 48.1338L42.7889 44.0183ZM42.9148 43.9003L47.2683 42.7401L47.6595 48.3468L42.9148 43.9003ZM48.3768 37.7995L51.724 42.025L47.4572 42.5251L48.3768 37.7995ZM51.819 36.6994L54.6439 38.2506L51.9604 41.84L51.819 36.6994ZM51.8489 36.5213L53.6035 33.73L54.6439 38.0545L51.8489 36.5213ZM51.7199 36.3993L49.0281 32.8569L53.4941 33.572L51.7199 36.3993ZM44.6426 30.6566L47.804 27.8833L48.7113 32.5889L44.6426 30.6566ZM38.3859 31.5107L40.3923 28.0613L44.2566 30.6276L38.3859 31.5107ZM34.1975 31.1267L36.4682 26.6461L38.0928 31.5267L34.1975 31.1267ZM30.8121 37.4425L28.0564 32.9839L33.8972 31.3337L30.8121 37.4425ZM27.8954 41.926L26.5619 36.7304L30.68 37.6755L27.8954 41.926ZM26.4266 44.0483L25.2046 41.1079L27.7282 42.1781L26.4266 44.0483ZM31.1796 47.6087L30.4922 51.0622L26.6733 44.5173L31.1796 47.6087ZM34.4669 49.2939L35.5124 52.7164L30.7523 51.2822L34.4669 49.2939ZM41.3821 48.3108L40.3449 52.7594L34.7621 49.2209L41.3821 48.3108ZM47.548 48.6319L44.8645 50.9872L41.7423 48.3088L47.548 48.6319ZM47.451 42.8501L51.5795 46.8966L47.836 48.4348L47.451 42.8501ZM47.5357 42.6921L51.7952 42.1921L51.6507 46.7266L47.5357 42.6921ZM54.7399 38.4126L56.4408 43.9643L52.0192 42.058L54.7399 38.4126ZM53.7749 33.72L56.5502 35.7592L54.8152 38.0255L53.7749 33.72ZM48.9982 32.6829L51.5785 29.8235L53.4807 33.4L48.9982 32.6829ZM48.8816 32.5538L47.9805 27.8803L51.4546 29.6975L48.8816 32.5538ZM44.4795 30.5736L40.6318 28.0193L47.6255 27.8133L44.4795 30.5736ZM38.2424 31.4137L36.6292 26.5671L40.2365 27.9843L38.2424 31.4137ZM34.0479 31.0357L32.1807 28.5813L36.2958 26.6061L34.0479 31.0357ZM33.9188 31.1517L28.1967 32.7679L32.0404 28.6844L33.9188 31.1517ZM30.6377 37.4915L26.5608 36.5553L27.9397 33.1259L30.6377 37.4915ZM27.7313 41.992L25.1509 40.8969L26.4339 36.9294L27.7313 41.992ZM26.2925 44.1793L24.0724 44.9664L25.0622 41.2159L26.2925 44.1793ZM30.2858 51.0582L25.4017 48.1248L26.4339 44.4503L30.2858 51.0582ZM35.2596 52.8184L30.6387 53.5285L30.6191 51.4202L35.2596 52.8184ZM34.6713 49.367L40.1044 52.8094L35.7085 52.7614L34.6713 49.367ZM41.5483 48.3668L44.7015 51.0732L40.5255 52.7534L41.5483 48.3668ZM47.7287 48.7089L49.3956 53.1854L45.0235 51.0852L47.7287 48.7089ZM47.8773 48.6089L51.5929 47.0807L49.5431 53.0964L47.8773 48.6089ZM51.9748 42.2241L56.3954 44.1303L51.8345 46.7766L51.9748 42.2241ZM54.9339 38.4376L57.8239 40.4308L56.5853 43.8443L54.9339 38.4376ZM54.9019 38.2066L56.639 35.9383L57.7836 40.1948L54.9019 38.2066ZM53.7418 33.482L54.5407 31.0567L56.4615 35.4852L53.7418 33.482ZM53.6211 33.2929L51.7777 29.8365L54.4241 30.8616L53.6211 33.2929ZM48.1745 27.7923L52.0233 27.5482L51.5382 29.5485L48.1745 27.7923ZM40.5544 27.8573L43.2637 24.5999L47.6069 27.6492L40.5544 27.8573ZM40.3944 27.7792L38.999 24.2378L43.0759 24.5558L40.3944 27.7792ZM40.2127 27.7953L36.6488 26.3951L38.8338 24.2948L40.2127 27.7953ZM32.2055 28.3883L33.7382 24.1038L36.3402 26.4041L32.2055 28.3883ZM28.0946 32.6359L29.2165 28.1843L31.8804 28.6134L28.0946 32.6359ZM26.4287 36.4363L24.9899 34.2471L27.7705 33.0969L26.4287 36.4363ZM26.3523 36.6364L25.122 40.4368L24.9569 34.5101L26.3523 36.6364ZM24.9352 41.0369L23.932 44.8374L22.358 41.0369H24.9352ZM22.3178 40.8709L22.4014 37.1414L24.8877 40.8679L22.3178 40.8709ZM26.2832 44.3713L25.281 47.9088L24.0631 45.1514L26.2832 44.3713ZM30.2837 51.2602L27.2565 51.6752L25.5266 48.4028L30.2837 51.2602ZM30.4488 51.4082L30.4684 53.4865L27.4753 51.8173L30.4488 51.4082ZM35.497 52.9604L33.9601 56.0628L30.7667 53.6805L35.497 52.9604ZM35.6766 52.9914L39.7204 56.6099L34.1253 56.1218L35.6766 52.9914ZM35.8747 52.9384L40.3129 52.9874L39.9083 56.5448L35.8747 52.9384ZM44.7871 51.2382L44.9564 55.2567L40.607 52.9094L44.7871 51.2382ZM44.9636 51.2532L49.3501 53.3635L45.1329 55.2737L44.9636 51.2532ZM51.7674 47.1347L53.9452 50.4351L49.7134 53.1594L51.7674 47.1347ZM51.9191 47.0487L56.1116 47.6487L54.0649 50.2991L51.9191 47.0487ZM51.9965 46.8886L56.4821 44.2883L56.19 47.4887L51.9965 46.8886ZM57.9209 40.6879L58.7125 43.3732L56.7257 43.9953L57.9209 40.6879ZM56.8619 36.1073L59.1326 38.8796L57.9663 40.2138L56.8619 36.1073ZM54.7358 31.0577L57.6866 33.1519L56.672 35.5192L54.7358 31.0577ZM51.6951 29.6185L52.1709 27.6532L54.2951 30.6256L51.6951 29.6185ZM47.9351 27.6322L47.419 24.6319L51.8572 27.3862L47.9351 27.6322ZM47.74 27.5322L43.5083 24.5628L47.224 24.5398L47.74 27.5322ZM39.1373 24.0738L41.8982 22.4316L43.0841 24.3818L39.1373 24.0738ZM36.4857 26.3061L33.9292 24.0458L38.6573 24.2178L36.4857 26.3061ZM31.9888 28.4553L29.3341 28.0273L33.4946 24.2468L31.9888 28.4553ZM27.8706 32.7829L25.154 30.6456L29.009 28.2673L27.8706 32.7829ZM27.755 32.9109L24.9486 34.071L25.0849 30.8096L27.755 32.9109ZM24.9476 40.6439L22.4261 36.8644L24.7732 34.4121L24.9476 40.6439ZM23.8546 45.1084L23.3767 47.4207L22.4323 41.679L23.8546 45.1084ZM23.9764 45.3845L25.1582 48.0578L23.4737 47.8298L23.9764 45.3845ZM27.0418 51.6442L25.2603 51.3092L25.3739 48.4868L27.0418 51.6442ZM30.4076 53.6445L29.1422 54.8236L27.4423 51.9923L30.4076 53.6445ZM30.5582 53.7385L33.5978 56.0098L29.2949 54.9196L30.5582 53.7385ZM40.4749 53.0324L44.8098 55.3647L40.062 56.5999L40.4749 53.0324ZM49.4472 53.4915L49.2098 56.4248L45.297 55.3717L49.4472 53.4915ZM53.8007 50.7161L51.3917 54.8096L49.6897 53.3635L53.8007 50.7161ZM56.1745 47.8258L56.1869 49.966L54.26 50.3231L56.1745 47.8258ZM56.6576 44.1803L58.6186 43.5662L56.3851 47.2087L56.6576 44.1803ZM58.0169 40.4158L59.1295 39.1447L58.7724 42.9581L58.0169 40.4158ZM56.7691 35.7292L57.7682 33.398L59.0624 38.5276L56.7691 35.7292ZM54.6439 30.7886L55.3458 29.6015L57.4606 32.7879L54.6439 30.7886ZM54.5221 30.6536L52.4455 27.7532L55.224 29.4695L54.5221 30.6536ZM47.5563 24.5138L49.6577 24.2968L51.7839 27.1382L47.5563 24.5138ZM43.2885 24.3938L42.1315 22.4886L46.8627 24.3728L43.2885 24.3938ZM38.8896 24.0198L37.9606 22.4376L41.6123 22.4016L38.8896 24.0198ZM38.7038 24.0468L34.1046 23.8798L37.7697 22.4606L38.7038 24.0468ZM29.4146 27.7232L31.066 24.2678L33.4544 24.0568L29.4146 27.7232ZM29.1184 27.9393L27.6136 26.5391L30.7905 24.4328L29.1184 27.9393ZM29.0059 28.0693L25.2624 30.3786L27.499 26.6631L29.0059 28.0693ZM24.7742 34.063L22.8957 33.0839L24.9084 30.8726L24.7742 34.063ZM24.7154 34.2241L22.4323 36.6074L22.8287 33.2419L24.7154 34.2241ZM22.132 40.9079L21.1669 41.672L22.2063 37.6165L22.132 40.9079ZM22.1557 41.1079L23.1404 47.0947L21.1226 41.928L22.1557 41.1079ZM25.2046 48.2378L25.0921 51.0512L23.5192 48.0088L25.2046 48.2378ZM27.1419 51.8383L28.7479 54.5096L25.4513 51.5252L27.1419 51.8383ZM33.8982 56.2588L33.829 57.804L29.6262 55.1767L33.8982 56.2588ZM34.0706 56.3248L36.2525 57.3129L34.0024 57.846L34.0706 56.3248ZM39.8804 56.8169L39.9485 58.9842L36.7789 57.377L39.8804 56.8169ZM44.8914 55.5167L43.6053 58.4501L40.2055 56.7369L44.8914 55.5167ZM45.0978 55.4907L49.0085 56.5429L43.8149 58.4201L45.0978 55.4907ZM49.6226 53.5255L51.2792 54.9256L49.3914 56.3498L49.6226 53.5255ZM54.1186 50.5201L56.028 50.1661L51.8417 54.3826L54.1186 50.5201ZM56.3676 49.702L56.3541 47.6147L58.116 46.5716L56.3676 49.702ZM56.5224 47.3167L58.6589 43.8383L58.2656 46.2876L56.5224 47.3167ZM59.2492 39.7958L59.499 42.3561L58.9334 43.1132L59.2492 39.7958ZM57.9467 33.384L58.4349 33.828L58.9241 37.2584L57.9467 33.384ZM55.4696 29.4715L55.9289 29.2474L57.2583 32.1668L55.4696 29.4715ZM52.2525 27.4272L53.0596 26.3081L55.0351 29.1474L52.2525 27.4272ZM52.1266 27.3052L50.0231 24.4928L52.9357 26.1841L52.1266 27.3052ZM47.3881 24.3608L47.3747 23.1387L49.4017 24.1528L47.3881 24.3608ZM47.2126 24.3278L42.5794 22.4836L47.1992 23.0727L47.2126 24.3278ZM38.0484 22.2666L38.7863 21.6535L41.2314 22.2366L38.0484 22.2666ZM34.0231 23.7307L35.4567 22.2306L37.4405 22.4036L34.0231 23.7307ZM33.6526 23.8688L31.4851 24.0598L35.0511 22.4136L33.6526 23.8688ZM27.6807 26.2871L27.9201 25.766L29.9132 24.8069L27.6807 26.2871ZM25.0642 30.3696L24.9187 29.0064L27.0862 27.0062L25.0642 30.3696ZM24.9136 30.6096L23.1156 32.5849L24.7721 29.2844L24.9136 30.6096ZM22.2352 36.7824L21.0875 36.9894L22.6037 33.654L22.2352 36.7824ZM22.197 36.9624L21.0999 41.2479L21.0297 37.1724L22.197 36.9624ZM23.1641 47.6337L21.8595 46.5936L21.234 42.6931L23.1641 47.6337ZM24.993 51.2342L24.1601 50.9692L23.6028 48.5498L24.993 51.2342ZM28.5549 54.5626L25.7909 53.1104L25.346 51.6622L28.5549 54.5626ZM29.0606 55.0227L30.2589 56.5028L26.5949 53.7215L29.0606 55.0227ZM29.5086 55.3017L33.3202 57.685L30.8256 56.9289L29.5086 55.3017ZM36.5012 57.424L39.4634 58.9241L34.3141 57.941L36.5012 57.424ZM40.0569 56.8529L43.3721 58.5241L40.124 59.0242L40.0569 56.8529ZM48.8589 56.7749L47.5171 57.901L44.4878 58.3561L48.8589 56.7749ZM51.3463 55.0887L51.4588 55.7888L49.7186 56.3098L51.3463 55.0887ZM55.8618 50.5721L54.0762 53.6585L51.7983 54.6736L55.8618 50.5721ZM56.3614 50.058L57.5597 47.9128L56.2788 50.8561L56.3614 50.058ZM58.8942 43.4472L59.3463 42.8411L58.6238 45.1594L58.8942 43.4472ZM59.3298 38.8746L59.3236 38.8296L59.369 38.2556L59.4144 39.7427L59.3298 38.8746ZM59.209 38.0295L58.7569 34.8511L59.3174 36.6514L59.209 38.0295ZM57.8672 33.0729L57.0415 31.2577L58.1975 33.3729L57.8672 33.0729ZM55.3757 29.3244L53.7243 26.9531L55.8298 29.1034L55.3757 29.3244ZM49.8621 24.2068L49.9725 24.1298L51.2379 25.0069L49.8621 24.2068ZM49.6949 24.1138L48.8372 23.6847L49.7909 24.0478L49.6949 24.1138ZM42.4535 22.2966L44.0615 21.9765L46.4808 22.8106L42.4535 22.2966ZM41.9292 22.2286L39.74 21.7065L43.4103 21.9325L41.9292 22.2286ZM37.7821 22.2676L36.0749 22.1185L38.4643 21.7005L37.7821 22.2676ZM31.7576 23.7457L32.734 23.0367L34.309 22.5666L31.7576 23.7457ZM30.9556 24.1158L30.1082 24.5238L31.4108 23.7858L30.9556 24.1158ZM27.401 26.4781L26.3957 27.4082L27.5444 26.166L27.401 26.4781ZM22.6924 33.0419L22.2455 33.2019L23.9826 30.4686L22.6924 33.0419ZM22.1103 33.431L22.5923 33.2579L21.3734 35.9413L22.1103 33.431ZM20.9099 40.3948L20.9347 41.888L20.8459 42.16L20.9099 40.3948ZM20.9935 42.2701L21.4332 45.0154L20.8274 42.7751L20.9935 42.2701ZM23.288 47.9488L23.8525 50.3991L22.0494 46.9617L23.288 47.9488ZM25.0993 51.4492L25.4915 52.7274L24.3242 51.2022L25.0993 51.4492ZM33.8559 58.027L34.019 58.2801L32.3056 57.558L33.8559 58.027ZM34.2956 58.3871L34.0891 58.077L37.8161 58.7881L34.2956 58.3871ZM43.4257 58.6871L43.0335 59.1172L40.9879 59.0622L43.4257 58.6871ZM43.6972 58.6461L46.1361 58.2791L43.3349 59.0432L43.6972 58.6461ZM49.3326 56.6049L50.7631 56.1768L48.2447 57.524L49.3326 56.6049ZM51.6239 55.6857L51.5114 54.9857L53.6015 54.0545L51.6239 55.6857ZM56.1508 50.4271L56.0528 51.3722L54.678 52.9614L56.1508 50.4271ZM58.4143 46.3966L58.7673 46.2316L57.1499 49.3099L58.4143 46.3966ZM58.8839 45.9885L58.4875 46.1746L59.2843 43.6342L58.8839 45.9885Z" fill="url(#paint1_radial_55_266)"/>
<path d="M77.1104 26.8332C75.3702 22.7807 71.8465 18.4051 69.0763 17.0229C71.0468 20.7166 72.4134 24.6844 73.1274 28.7844C73.1274 28.7754 73.1274 28.7924 73.1336 28.8214L73.1408 28.8624C76.2294 37.4121 75.7825 46.7883 71.894 55.0257C67.3052 64.5589 56.1954 74.3281 38.8041 73.8481C20.0194 73.333 3.46412 59.8363 0.378068 42.1641C-0.184441 39.3768 0.378067 37.9636 0.66087 35.6983C0.273383 37.4574 0.0563815 39.2477 0.0126953 41.046V41.246C0.0460588 50.9484 3.82821 60.2869 10.6139 67.4215C17.3997 74.5561 26.6969 78.9694 36.6738 79.7918C46.6506 80.6143 56.5836 77.7862 64.5156 71.8649C72.4476 65.9435 77.8033 57.3583 79.5276 47.8008C79.5947 47.3007 79.6494 46.8057 79.7092 46.3056C80.5349 39.7064 79.6407 33.012 77.1104 26.8332Z" fill="url(#paint2_radial_55_266)"/>
<path d="M77.1104 26.8332C75.3702 22.7807 71.8465 18.4051 69.0763 17.0229C71.0468 20.7166 72.4134 24.6844 73.1274 28.7844C73.1274 28.7754 73.1274 28.7924 73.1336 28.8214L73.1408 28.8624C76.2294 37.4121 75.7825 46.7883 71.894 55.0257C67.3052 64.5589 56.1954 74.3281 38.8041 73.8481C20.0194 73.333 3.46412 59.8363 0.378068 42.1641C-0.184441 39.3768 0.378067 37.9636 0.66087 35.6983C0.273383 37.4574 0.0563815 39.2477 0.0126953 41.046V41.246C0.0460588 50.9484 3.82821 60.2869 10.6139 67.4215C17.3997 74.5561 26.6969 78.9694 36.6738 79.7918C46.6506 80.6143 56.5836 77.7862 64.5156 71.8649C72.4476 65.9435 77.8033 57.3583 79.5276 47.8008C79.5947 47.3007 79.6494 46.8057 79.7092 46.3056C80.5349 39.7064 79.6407 33.012 77.1104 26.8332Z" fill="url(#paint3_radial_55_266)"/>
<path d="M0.369297 42.1654C3.45948 59.8377 20.0106 73.3393 38.8056 73.8494C56.1969 74.3255 67.3129 64.5552 71.8955 55.0271C75.7841 46.7896 76.2309 37.4134 73.1424 28.8638V28.8268C73.1424 28.7978 73.1362 28.7808 73.1362 28.7898L73.1444 28.8548C74.5646 37.8329 69.8468 46.527 62.4722 52.4177L62.4495 52.4677C48.072 63.7891 34.3138 59.2976 31.5271 57.4594C31.3315 57.3677 31.1371 57.2737 30.9439 57.1773C22.5651 53.3018 19.1055 45.9159 19.8486 39.5751C17.8601 39.6042 15.9056 39.074 14.2218 38.0487C12.5379 37.0234 11.1969 35.547 10.3613 33.7984C12.5621 32.4935 15.0708 31.756 17.6488 31.656C20.2269 31.5561 22.7884 32.097 25.0897 33.2273C29.8334 35.3119 35.2301 35.5172 40.1278 33.7994C40.1133 33.4844 33.1434 30.799 30.4258 28.2087C28.9736 26.8235 28.2841 26.1564 27.6742 25.6554C27.3443 25.3851 26.9998 25.132 26.642 24.8973C26.4036 24.7403 26.1363 24.5702 25.8163 24.3662C22.8954 22.528 17.0866 22.63 16.8946 22.634H16.8761C15.2876 20.6868 15.4001 14.2659 15.491 12.9258C15.0199 13.1079 14.5702 13.3379 14.1492 13.6119C12.7484 14.5798 11.4387 15.6658 10.2354 16.8573C8.86502 18.2028 7.61285 19.6567 6.49186 21.2038C3.91685 24.7348 2.09017 28.7256 1.11759 32.9453C1.09901 33.0293 -0.323258 39.0501 0.377554 42.1724L0.369297 42.1654Z" fill="url(#paint4_radial_55_266)"/>
<path d="M54.1763 26.8732C55.6371 28.2627 56.888 29.8452 57.892 31.5738C58.1003 31.7231 58.3011 31.882 58.4937 32.0499C67.5764 40.1509 62.8152 51.6023 62.4612 52.4124C69.8368 46.5307 74.5577 37.8306 73.1334 28.8495C68.6044 17.9281 60.9233 13.5175 54.6583 3.92634C54.3346 3.43687 54.0201 2.94173 53.715 2.44116C53.5575 2.18005 53.4105 1.91315 53.2742 1.64106C53.0133 1.15245 52.8123 0.635854 52.6756 0.101867C52.6758 0.0772958 52.6666 0.0535194 52.6499 0.0350732C52.6331 0.016627 52.61 0.0048021 52.5848 0.00185416C52.5602 -0.00517534 52.534 -0.00517534 52.5094 0.00185416L52.4898 0.0118554L52.4599 0.0238569C50.9117 0.738946 41.7258 14.8157 54.1753 26.8672L54.1763 26.8732Z" fill="url(#paint5_linear_55_266)"/>
<path d="M38.7669 21.5526L44.0689 21.8797L47.2892 22.9898L49.9727 24.01L53.0639 26.1492L55.9755 29.1236L56.987 30.9728C57.2074 31.1071 57.4256 31.2448 57.6414 31.3859C57.7291 31.4449 57.8086 31.5039 57.8901 31.5629C56.8858 29.8361 55.6349 28.2553 54.1745 26.8673C41.727 14.8158 50.9088 0.744046 52.457 0.0239559L52.4777 0.00195312C42.4175 5.70267 39.0084 16.254 38.6885 21.5346V21.5647L38.7669 21.5526Z" fill="url(#paint6_linear_55_266)"/>
<path d="M25.8028 24.363C26.0819 24.5344 26.3572 24.7115 26.6285 24.8941C25.7153 21.8032 25.6765 18.5313 26.516 15.4209C22.8227 17.1523 19.5402 19.6074 16.876 22.6308C17.0731 22.6268 22.8819 22.5248 25.8028 24.363Z" fill="url(#paint7_radial_55_266)"/>
<path d="M22.0664 44.7555C22.0664 44.7555 23.9149 38.0877 35.2982 38.0877C36.5296 38.0877 40.046 34.7623 40.1141 33.7982C35.2164 35.516 29.8198 35.3107 25.0761 33.2261C22.7748 32.0958 20.2132 31.5548 17.6352 31.6548C15.0572 31.7547 12.5484 32.4923 10.3477 33.7972C11.1833 35.5458 12.5243 37.0222 14.2081 38.0475C15.892 39.0728 17.8465 39.603 19.8349 39.5739C19.0929 45.9107 22.5546 53.2956 30.9303 57.1761C31.1181 57.2631 31.2936 57.3581 31.4856 57.4411C26.5954 54.9938 22.5567 50.3702 22.052 44.7595L22.0664 44.7555Z" fill="url(#paint8_radial_55_266)"/>
<path d="M58.4902 32.044C58.2975 31.8761 58.0967 31.7172 57.8885 31.5679C57.8069 31.5089 57.7274 31.4499 57.6397 31.3909C54.8217 29.5024 51.3809 28.6938 47.9831 29.1216C62.3916 36.0925 58.5211 60.0955 38.5609 59.1854C36.7834 59.1153 35.0268 58.7872 33.3497 58.2123C32.9532 58.0676 32.5609 57.9125 32.1731 57.7472C31.9481 57.6472 31.722 57.5472 31.498 57.4352L31.5259 57.4522C34.3127 59.2904 48.0606 63.784 62.4381 52.4565L62.4608 52.4065C62.8148 51.5904 67.5718 40.135 58.4933 32.044H58.4902Z" fill="url(#paint9_radial_55_266)"/>
<path d="M77.0993 26.8333C75.3591 22.7798 71.8355 18.4052 69.0652 17.022C71.0363 20.7157 72.404 24.6834 73.1194 28.7835L73.1277 28.8475C68.5997 17.9262 60.9176 13.5156 54.6526 3.92441C54.3284 3.43558 54.0139 2.94076 53.7093 2.44022C53.5523 2.17866 53.405 1.91179 53.2675 1.64012C53.0077 1.15261 52.8075 0.637399 52.671 0.104928C52.6711 0.0803568 52.662 0.0565804 52.6452 0.0381342C52.6285 0.019688 52.6053 0.00786306 52.5801 0.00491512C52.5555 -0.00163837 52.5294 -0.00163837 52.5048 0.00491512C52.4986 0.00491512 52.4903 0.0139162 52.4841 0.0159165C52.478 0.0179167 52.4645 0.0269179 52.4552 0.0309184L52.4718 0.00891562C42.4116 5.70963 39.0025 16.291 38.6826 21.5716L38.7641 21.5576L44.0661 21.8847L47.05 22.9128L49.9699 24.0129L53.0611 26.1522L55.9696 29.1246C55.9696 29.1246 56.9708 30.9448 56.9842 30.9758C54.2934 29.3688 51.112 28.7123 47.9789 29.1176C62.3874 36.0884 58.5169 60.0914 38.5567 59.1813C36.7793 59.1111 35.0227 58.7834 33.3455 58.2092C32.956 58.0679 32.5638 57.9118 32.1688 57.7411C31.9412 57.6426 31.7161 57.5386 31.4938 57.4291L31.5217 57.4461C31.326 57.355 31.1316 57.2614 30.9385 57.1651C31.1254 57.2511 31.3019 57.3461 31.4938 57.4291C26.6036 54.9828 22.5649 50.3582 22.0602 44.7475C22.0602 44.7475 23.9087 38.0797 35.292 38.0797C36.5234 38.0797 40.0398 34.7543 40.1079 33.7901C40.0935 33.4751 33.1225 30.7898 30.406 28.1994C28.9538 26.8153 28.2643 26.1472 27.6533 25.6461C27.3222 25.3755 26.9759 25.1227 26.616 24.889C25.7031 21.7978 25.6643 18.5256 26.5035 15.4148C22.8101 17.1466 19.5276 19.6019 16.8635 22.6257H16.8449C15.2575 20.6795 15.37 14.2587 15.4598 12.9175C14.989 13.1002 14.5393 13.3302 14.118 13.6036C12.717 14.5716 11.4073 15.658 10.2042 16.85C8.83486 18.1935 7.58371 19.6453 6.46378 21.1906C3.89143 24.7223 2.06692 28.713 1.0957 32.932C1.07609 33.0161 1.0606 33.1031 1.04202 33.1871C0.96668 33.5291 0.629175 35.2603 0.579633 35.6324C0.270719 37.4221 0.0735689 39.2283 -0.0107422 41.0411V41.2411C0.00778061 50.9534 3.7833 60.3062 10.5705 67.453C17.3577 74.5997 26.6633 79.0212 36.6504 79.8445C46.6375 80.6678 56.5802 77.8331 64.5157 71.9C72.4513 65.967 77.803 57.3667 79.5145 47.7969C79.5826 47.2968 79.6373 46.7968 79.6972 46.2967C80.521 39.6972 79.6265 33.0028 77.0952 26.8243L77.0993 26.8333Z" fill="url(#paint10_linear_55_266)"/>
<path d="M40.1189 33.7944C40.1189 33.7944 39.9497 33.8624 39.6359 33.9665C38.8536 35.2476 36.072 37.6939 35.0089 37.6889C23.6246 37.6409 21.7461 44.2357 21.7461 44.2357C21.9542 46.49 22.7196 48.6625 23.9775 50.5695C22.9138 48.7873 22.2629 46.8021 22.0702 44.7518C22.0702 44.7518 23.9187 38.084 35.302 38.084C36.5333 38.084 40.0508 34.7586 40.1189 33.7944Z" fill="url(#paint11_linear_55_266)"/>
<path d="M73.1365 28.8635V28.8265C73.1365 28.7975 73.1303 28.7805 73.1365 28.7895C73.1427 28.7985 73.1365 28.8115 73.1437 28.8545C72.8747 28.207 72.5876 27.5667 72.2829 26.9342C72.1797 26.7222 72.0765 26.5242 71.9681 26.3172C71.7669 25.9171 71.5677 25.5171 71.3592 25.141C71.2302 24.906 71.0949 24.683 70.9628 24.4549C70.7688 24.1199 70.5768 23.7828 70.3776 23.4548C70.2311 23.2188 70.0804 22.9927 69.9317 22.7627C69.7367 22.4627 69.5426 22.1626 69.3434 21.8706C69.1855 21.6396 69.0235 21.4166 68.8635 21.1915C68.6643 20.9135 68.4661 20.6355 68.2628 20.3644C68.0956 20.1404 67.9253 19.9214 67.755 19.7023C67.5486 19.4413 67.3494 19.1803 67.144 18.9242C66.9678 18.7062 66.7903 18.4891 66.6114 18.2732C66.405 18.0241 66.1985 17.7731 65.987 17.5281C65.8046 17.314 65.6212 17.101 65.4368 16.889C65.3336 16.774 65.2376 16.656 65.1365 16.5409L65.2645 16.693C61.7821 12.7265 58.0159 9.07101 54.6542 3.92137C54.3304 3.43198 54.0159 2.93684 53.7109 2.43618C53.5534 2.17508 53.4064 1.90818 53.2702 1.63608C53.0436 1.19941 52.8591 0.74342 52.719 0.273912C52.7118 0.248909 52.6994 0.210904 52.6953 0.190901C52.6874 0.160974 52.6798 0.130968 52.6726 0.10089C52.6727 0.0763192 52.6636 0.0525428 52.6468 0.0340967C52.6301 0.0156505 52.6069 0.00382554 52.5817 0.000877594C52.5571 -0.00615191 52.531 -0.00615191 52.5064 0.000877594L52.4868 0.011879C52.4765 0.0162899 52.4665 0.0212997 52.4568 0.0268808C52.3687 0.0742295 52.2871 0.132381 52.2143 0.199902C52.1945 0.216011 52.1752 0.232687 52.1565 0.249909C52.0442 0.352005 51.9384 0.460548 51.8396 0.574949L51.8283 0.585951C49.4327 3.31429 43.305 15.1978 53.1793 25.8491C43.9346 15.3078 49.7609 3.91637 52.2927 0.935994C52.4276 1.33794 52.5929 1.72971 52.7871 2.10814C52.9231 2.38036 53.0701 2.64726 53.2278 2.90824C53.5375 3.4213 53.8543 3.90837 54.1712 4.39243C60.4424 13.9856 68.1255 18.3942 72.6462 29.3155C72.6462 29.2735 72.639 29.2575 72.639 29.2515C72.639 29.2455 72.639 29.2595 72.6442 29.2885L72.6504 29.3255C75.7402 37.8746 75.2949 47.2509 71.4077 55.4888C69.8153 58.761 67.6644 61.7493 65.0457 64.3279C67.8817 61.6454 70.1999 58.493 71.8907 55.0198C75.7782 46.7821 76.225 37.4063 73.1375 28.8565L73.1365 28.8635Z" fill="url(#paint12_linear_55_266)"/>
<path d="M52.4631 0.0288387L52.4837 0.00683594C43.4216 5.14448 39.7576 14.2186 38.8906 19.8193C40.3407 12.4935 44.6798 6.00357 50.9871 1.72705C51.3537 1.0669 51.8573 0.487363 52.4662 0.0248382L52.4631 0.0288387Z" fill="url(#paint13_linear_55_266)"/>
<path d="M62.4435 52.4563L62.4662 52.4063C62.8203 51.5902 67.5773 40.1348 58.4988 32.0438C58.3061 31.8759 58.1053 31.717 57.897 31.5677C57.8155 31.5087 57.736 31.4497 57.6483 31.3907C54.9321 29.5777 51.6417 28.7541 48.3592 29.0654H48.3561C48.2342 29.0813 48.1128 29.0997 47.9917 29.1204C62.2351 36.0133 58.6123 59.5542 39.2383 59.2042L39.3962 59.2132C59.0375 59.9613 62.908 36.6204 49.2612 29.2994C51.9435 29.3135 54.5692 30.0482 56.8463 31.4217C56.9324 31.4765 57.0174 31.5329 57.1013 31.5907C57.3155 31.7312 57.5221 31.882 57.7205 32.0428C67.1201 39.7908 62.8296 51.4152 62.5075 52.2453L62.4869 52.2973" fill="url(#paint14_linear_55_266)"/>
<path d="M25.1941 33.614C29.807 35.478 34.9729 35.6011 39.6748 33.9591C34.8917 35.5034 29.6833 35.2416 25.0909 33.226C22.8223 32.1197 20.304 31.5813 17.7656 31.6599C15.2273 31.7385 12.7496 32.4316 10.5586 33.676L10.5059 33.709H10.5008L10.4574 33.737L10.4244 33.759L10.4037 33.773H10.3975L10.3831 33.783H10.3779L10.3965 33.826V33.832L10.4192 33.882V33.8921L10.4533 33.9641V33.9701C10.5352 34.1353 10.623 34.2977 10.7165 34.4571C11.6191 36.03 12.9461 37.3355 14.5554 38.234C16.1647 39.1324 17.9958 39.59 19.8528 39.5578C19.1303 45.7045 22.3692 52.8394 30.2154 56.7999C22.7201 52.6144 19.5742 45.0184 20.4463 38.9777C14.6592 38.8297 12.0716 35.4683 11.3316 34.0431C13.458 32.9546 15.8126 32.3501 18.2162 32.2756C20.6199 32.2011 23.0095 32.6585 25.2034 33.613L25.1941 33.614Z" fill="url(#paint15_linear_55_266)"/>
<path d="M26.6287 24.8731L26.4326 24.7621L26.639 24.8941L26.6287 24.8731ZM26.5874 24.7311C25.7217 21.6872 25.6992 18.4759 26.5224 15.4209C22.9925 17.0659 19.8404 19.3825 17.2539 22.2327C19.7072 19.8481 22.5665 17.8912 25.706 16.448C25.3346 19.2379 25.6363 22.0733 26.5874 24.7311Z" fill="url(#paint16_linear_55_266)"/>
<path d="M1.33513 46.2257L1.30313 46.1147C0.91694 44.8156 0.606809 43.4963 0.374217 42.1632C0.116179 40.5057 0.116179 38.8201 0.374217 37.1626C0.173293 38.448 0.0509453 39.7437 0.0078125 41.0431V41.2431C0.01006 49.2947 2.59892 57.146 7.41508 63.7071C12.2312 70.2683 19.0358 75.214 26.8843 77.8577C20.0793 75.3054 14.1127 71.0182 9.61597 65.4496C5.1192 59.8809 2.25944 53.2381 1.33925 46.2237L1.33513 46.2257Z" fill="url(#paint17_linear_55_266)"/>
<path d="M1.01444 42.3251C0.31363 39.2027 1.73693 33.183 1.75448 33.098C2.72706 28.8783 4.55373 24.8875 7.12875 21.3565C8.24865 19.8112 9.49944 18.359 10.8681 17.015C12.0715 15.8235 13.3812 14.7375 14.782 13.7696C14.8374 13.7347 14.8938 13.7013 14.9512 13.6696C14.9368 16.6179 15.1102 21.5935 16.519 23.2247H16.5376C16.7306 23.2147 22.5601 22.9657 25.5419 24.7249C25.8732 24.925 26.1457 25.084 26.3892 25.235C26.7563 25.4604 27.1108 25.7044 27.4513 25.9661C28.0768 26.4521 28.7869 27.1012 30.2824 28.4484C32.4499 30.3996 37.1657 32.3399 39.2041 33.264C37.2183 32.2949 32.5324 30.2236 30.4197 28.2084C28.9675 26.8232 28.278 26.1561 27.668 25.6551C27.3382 25.3847 26.9936 25.1317 26.6359 24.897C26.3975 24.7399 26.1302 24.5699 25.8102 24.3659C22.8893 22.5277 17.0805 22.6297 16.8885 22.6337H16.8699C15.4188 20.8544 15.3878 15.3398 15.4621 13.3805C15.4621 13.3045 15.4621 13.2355 15.4704 13.1705V13.0435C15.4704 13.0015 15.4704 12.9605 15.4776 12.9255C15.4776 12.9255 15.4704 12.9185 15.4611 12.9185H15.425L15.4023 12.9265L15.3692 12.9385L15.3372 12.9515L15.2991 12.9685L15.2578 12.9875L15.2165 13.0075L15.1659 13.0315L15.1257 13.0525L15.0658 13.0825L15.0317 13.1005C14.7301 13.2597 14.4327 13.4264 14.14 13.6005C12.7392 14.5685 11.4295 15.6545 10.2262 16.8459C8.85562 18.1953 7.60377 19.6532 6.48367 21.2045C3.90866 24.7355 2.08199 28.7263 1.1094 32.946C1.09082 33.03 -0.335577 39.0467 0.369365 42.1731C2.99922 57.215 15.3765 69.2265 30.59 72.7869C15.6758 69.0395 3.61024 57.155 1.00928 42.3231L1.01444 42.3251Z" fill="url(#paint18_linear_55_266)"/>
<path d="M77.1098 26.8332C75.5757 23.2569 73.1627 20.0982 70.081 17.632L70.0098 17.583C69.9312 17.5295 69.8521 17.4769 69.7724 17.425C69.7428 17.405 69.7129 17.386 69.6826 17.368C69.6069 17.3213 69.5326 17.2763 69.4597 17.233L69.373 17.1829C69.275 17.1279 69.1759 17.0749 69.0757 17.0239C69.1831 17.2279 69.2883 17.433 69.3916 17.639C69.4564 17.7663 69.5204 17.894 69.5835 18.0221C71.2873 21.4274 72.4805 25.0511 73.1268 28.7834L73.1351 28.8484C74.5553 37.8265 69.8374 46.5206 62.4629 52.4113L62.4402 52.4614C53.2718 59.6873 44.3574 60.4754 38.3814 59.6212C44.3377 60.6994 53.7291 60.2443 63.4104 52.6204L63.4321 52.5704C70.8076 46.6886 75.5286 37.9885 74.1042 29.0074L74.096 28.9424C73.5397 25.6865 72.5585 22.5124 71.1761 19.4962C72.9292 21.2969 74.4043 23.334 75.5554 25.544C78.432 31.4715 79.7057 38.0106 79.2566 44.5464C79.2256 45.0414 79.1998 45.5355 79.1606 46.0265C77.9974 55.0421 73.5924 63.3721 66.7196 69.5526C59.8467 75.7331 50.9458 79.3688 41.5809 79.8208C38.941 79.9645 36.2929 79.86 33.6738 79.5087C44.0858 81.1298 54.7377 78.71 63.3213 72.7738C71.9049 66.8375 77.7288 57.863 79.5311 47.7948C79.5982 47.2947 79.6529 46.7996 79.7128 46.2996C80.5384 39.7004 79.6453 33.0059 77.1149 26.8272L77.1098 26.8332Z" fill="url(#paint19_linear_55_266)"/>
</g>
<defs>
<radialGradient id="paint0_radial_55_266" cx="0" cy="0" r="1" gradientUnits="userSpaceOnUse" gradientTransform="translate(42.1284 30.9403) scale(23.3776 22.646)">
<stop offset="0.1" stop-color="#00DDFF" stop-opacity="0.4"/>
<stop offset="0.9" stop-color="#7542E5" stop-opacity="0.25"/>
</radialGradient>
<radialGradient id="paint1_radial_55_266" cx="0" cy="0" r="1" gradientUnits="userSpaceOnUse" gradientTransform="translate(39.8783 41.3884) scale(19.8787 19.2566)">
<stop offset="0.91" stop-color="#7542E5" stop-opacity="0"/>
<stop offset="1" stop-color="#00DDFF" stop-opacity="0.4"/>
</radialGradient>
<radialGradient id="paint2_radial_55_266" cx="0" cy="0" r="1" gradientUnits="userSpaceOnUse" gradientTransform="translate(68.8214 8.83663) scale(102.422 80.5684)">
<stop stop-color="#80EBFF"/>
<stop offset="0.26" stop-color="#00DDFF"/>
<stop offset="0.53" stop-color="#0090ED"/>
<stop offset="0.86" stop-color="#0060DF"/>
</radialGradient>
<radialGradient id="paint3_radial_55_266" cx="0" cy="0" r="1" gradientUnits="userSpaceOnUse" gradientTransform="translate(38.1979 42.1995) scale(102.422 80.5684)">
<stop offset="0.3" stop-color="#321C64" stop-opacity="0.8"/>
<stop offset="0.37" stop-color="#212F83" stop-opacity="0.5"/>
<stop offset="0.48" stop-color="#0A47AC" stop-opacity="0.14"/>
<stop offset="0.53" stop-color="#0250BB" stop-opacity="0"/>
</radialGradient>
<radialGradient id="paint4_radial_55_266" cx="0" cy="0" r="1" gradientUnits="userSpaceOnUse" gradientTransform="translate(67.6726 -17.5528) scale(157.453 127.953)">
<stop stop-color="#80EBFF"/>
<stop offset="0.47" stop-color="#00B3F4"/>
<stop offset="0.84" stop-color="#0060DF"/>
<stop offset="1" stop-color="#592ACB"/>
</radialGradient>
<linearGradient id="paint5_linear_55_266" x1="58.5124" y1="-5.23789" x2="77.4862" y2="55.3212" gradientUnits="userSpaceOnUse">
<stop stop-color="#AAF2FF"/>
<stop offset="0.29" stop-color="#00DDFF"/>
<stop offset="0.61" stop-color="#0090ED"/>
<stop offset="0.89" stop-color="#0250BB"/>
</linearGradient>
<linearGradient id="paint6_linear_55_266" x1="45.9935" y1="0.00686461" x2="58.1341" y2="36.6949" gradientUnits="userSpaceOnUse">
<stop stop-color="#AAF2FF"/>
<stop offset="0.29" stop-color="#00DDFF"/>
<stop offset="0.74" stop-color="#0090ED"/>
<stop offset="1" stop-color="#0250BB"/>
</linearGradient>
<radialGradient id="paint7_radial_55_266" cx="0" cy="0" r="1" gradientUnits="userSpaceOnUse" gradientTransform="translate(37.1585 5.56514) scale(29.2565 28.4119)">
<stop stop-color="#00DDFF"/>
<stop offset="0.82" stop-color="#0090ED"/>
</radialGradient>
<radialGradient id="paint8_radial_55_266" cx="0" cy="0" r="1" gradientUnits="userSpaceOnUse" gradientTransform="translate(56.4724 20.0304) scale(93.124 80.7436)">
<stop offset="0.29" stop-color="#80EBFF"/>
<stop offset="1" stop-color="#00B3F4"/>
</radialGradient>
<radialGradient id="paint9_radial_55_266" cx="0" cy="0" r="1" gradientUnits="userSpaceOnUse" gradientTransform="translate(36.3804 15.7206) scale(74.7955 71.0486)">
<stop offset="0.18" stop-color="#AAF2FF"/>
<stop offset="0.43" stop-color="#00DDFF"/>
<stop offset="0.69" stop-color="#0060DF"/>
</radialGradient>
<linearGradient id="paint10_linear_55_266" x1="68.8018" y1="12.0064" x2="15.9934" y2="67.2073" gradientUnits="userSpaceOnUse">
<stop offset="0.24" stop-color="#80EBFF" stop-opacity="0.5"/>
<stop offset="0.7" stop-color="#00DDFF" stop-opacity="0"/>
</linearGradient>
<linearGradient id="paint11_linear_55_266" x1="32.9491" y1="32.1173" x2="26.5988" y2="59.0724" gradientUnits="userSpaceOnUse">
<stop stop-color="#BFF3FF" stop-opacity="0.9"/>
<stop offset="1" stop-color="#80EBFF" stop-opacity="0.5"/>
</linearGradient>
<linearGradient id="paint12_linear_55_266" x1="61.7314" y1="-1.2862" x2="57.2137" y2="89.2459" gradientUnits="userSpaceOnUse">
<stop stop-color="#BFF3FF"/>
<stop offset="1" stop-color="#00DDFF" stop-opacity="0"/>
</linearGradient>
<linearGradient id="paint13_linear_55_266" x1="45.954" y1="-0.785589" x2="44.5089" y2="28.2943" gradientUnits="userSpaceOnUse">
<stop stop-color="#BFF3FF"/>
<stop offset="1" stop-color="#AAF2FF" stop-opacity="0.5"/>
</linearGradient>
<linearGradient id="paint14_linear_55_266" x1="52.3664" y1="28.3971" x2="50.1645" y2="71.8996" gradientUnits="userSpaceOnUse">
<stop stop-color="#BFF3FF"/>
<stop offset="1" stop-color="#00DDFF" stop-opacity="0"/>
</linearGradient>
<linearGradient id="paint15_linear_55_266" x1="24.742" y1="31.1439" x2="26.4722" y2="62.6179" gradientUnits="userSpaceOnUse">
<stop stop-color="#BFF3FF" stop-opacity="0.8"/>
<stop offset="1" stop-color="#80EBFF" stop-opacity="0.2"/>
</linearGradient>
<linearGradient id="paint16_linear_55_266" x1="28.2258" y1="13.2399" x2="19.3752" y2="27.4795" gradientUnits="userSpaceOnUse">
<stop stop-color="#BFF3FF" stop-opacity="0.8"/>
<stop offset="1" stop-color="#80EBFF" stop-opacity="0.2"/>
</linearGradient>
<linearGradient id="paint17_linear_55_266" x1="13.9818" y1="36.763" x2="10.9017" y2="92.8122" gradientUnits="userSpaceOnUse">
<stop stop-color="#00DDFF" stop-opacity="0.4"/>
<stop offset="1" stop-color="#00DDFF" stop-opacity="0"/>
</linearGradient>
<linearGradient id="paint18_linear_55_266" x1="19.6907" y1="5.72666" x2="19.6907" y2="72.1762" gradientUnits="userSpaceOnUse">
<stop stop-color="#BFF3FF"/>
<stop offset="1" stop-color="#00DDFF" stop-opacity="0"/>
</linearGradient>
<linearGradient id="paint19_linear_55_266" x1="58.2247" y1="15.1291" x2="53.0991" y2="106.295" gradientUnits="userSpaceOnUse">
<stop stop-color="#BFF3FF" stop-opacity="0.8"/>
<stop offset="1" stop-color="#00DDFF" stop-opacity="0"/>
</linearGradient>
<clipPath id="clip0_55_266">
<rect width="80" height="80" fill="white"/>
</clipPath>
</defs>
</svg>
