<svg width="80" height="80" viewBox="0 0 80 80" fill="none" xmlns="http://www.w3.org/2000/svg">
<g clip-path="url(#clip0_55_429)">
<path d="M76.4381 27.0771C74.7293 23.0966 71.2631 18.7989 68.5487 17.4403C70.4843 21.069 71.8278 24.966 72.5315 28.9927L72.5386 29.0566C68.0921 18.3293 60.5549 13.9971 54.3956 4.57635C54.0841 4.09991 53.7726 3.62248 53.4692 3.11854C53.2956 2.83071 53.1566 2.57137 53.0359 2.33265C52.7805 1.85381 52.5836 1.34775 52.4494 0.824743C52.4496 0.800608 52.4406 0.777255 52.4241 0.759136C52.4076 0.741018 52.3848 0.729403 52.3601 0.726507C52.3358 0.72007 52.3102 0.72007 52.286 0.726507C52.2809 0.726507 52.2728 0.735349 52.2667 0.737313C52.2606 0.739278 52.2474 0.748119 52.2383 0.752049L52.2535 0.726507C42.3753 6.32592 39.0217 16.6897 38.7173 21.8766C34.7711 22.1385 30.998 23.5458 27.8904 25.915C27.5663 25.6493 27.2276 25.4007 26.8757 25.1704C25.9797 22.1339 25.9415 18.9202 26.7651 15.8646C23.1374 17.5658 19.9139 19.9776 17.2989 22.9473H17.2806C15.722 21.0347 15.8316 14.728 15.9209 13.4106C15.4598 13.59 15.0197 13.8163 14.6079 14.0855C13.2319 15.0362 11.9457 16.1029 10.7641 17.2733C9.4177 18.5948 8.18798 20.0232 7.08785 21.5435V21.5494V21.5426C4.55973 25.0119 2.7664 28.9315 1.81136 33.0754L1.7586 33.3269C1.68452 33.6618 1.41766 35.3397 1.37199 35.7042C1.37199 35.7326 1.36591 35.7592 1.36286 35.7877C1.01862 37.5199 0.805303 39.2741 0.724609 41.0364V41.2328C0.74199 50.7602 4.44817 59.9351 11.1115 66.9464C17.7749 73.9576 26.9112 78.2957 36.7169 79.1042C46.5226 79.9128 56.2851 77.133 64.0773 71.3137C71.8694 65.4944 77.125 57.0585 78.8064 47.6712C78.8724 47.18 78.9262 46.6937 78.985 46.1977C79.7951 39.716 78.9181 33.1411 76.434 27.0712L76.4381 27.0771ZM31.1111 56.8817C31.2947 56.9672 31.4672 57.0595 31.656 57.1411L31.6834 57.1578C31.4926 57.0694 31.3018 56.9773 31.1111 56.8817ZM72.5396 29.0674V29.031L72.5467 29.0713L72.5396 29.0674Z" fill="url(#paint0_linear_55_429)"/>
<path d="M76.4378 27.0768C74.729 23.0963 71.2628 18.7985 68.5484 17.4399C70.484 21.0687 71.8275 24.9656 72.5312 28.9924V29.0288L72.5383 29.069C75.57 37.4672 75.1316 46.6749 71.3145 54.7674C66.8072 64.1302 55.9011 73.7268 38.8236 73.2553C20.3762 72.7493 4.12053 59.4925 1.08656 42.1343C0.533539 39.3965 1.08656 38.0084 1.36459 35.7834C0.985338 37.5117 0.773698 39.2706 0.732422 41.037V41.2335C0.749802 50.7609 4.45598 59.9358 11.1193 66.947C17.7827 73.9583 26.919 78.2964 36.7247 79.1049C46.5304 79.9134 56.2929 77.1337 64.0851 71.3144C71.8773 65.4951 77.1328 57.0592 78.8142 47.6718C78.8802 47.1807 78.934 46.6944 78.9928 46.1983C79.8029 39.7167 78.926 33.1418 76.4419 27.0719L76.4378 27.0768Z" fill="url(#paint1_radial_55_429)"/>
<path d="M76.4378 27.0768C74.729 23.0963 71.2628 18.7985 68.5484 17.4399C70.484 21.0687 71.8275 24.9656 72.5312 28.9924V29.0288L72.5383 29.069C75.57 37.4672 75.1316 46.6749 71.3145 54.7674C66.8072 64.1302 55.9011 73.7268 38.8236 73.2553C20.3762 72.7493 4.12053 59.4925 1.08656 42.1343C0.533539 39.3965 1.08656 38.0084 1.36459 35.7834C0.985338 37.5117 0.773698 39.2706 0.732422 41.037V41.2335C0.749802 50.7609 4.45598 59.9358 11.1193 66.947C17.7827 73.9583 26.919 78.2964 36.7247 79.1049C46.5304 79.9134 56.2929 77.1337 64.0851 71.3144C71.8773 65.4951 77.1328 57.0592 78.8142 47.6718C78.8802 47.1807 78.934 46.6944 78.9928 46.1983C79.8029 39.7167 78.926 33.1418 76.4419 27.0719L76.4378 27.0768Z" fill="url(#paint2_radial_55_429)"/>
<path d="M57.3208 31.5464C57.406 31.6044 57.4852 31.6624 57.5653 31.7203C56.5774 30.0245 55.3477 28.4718 53.9124 27.1082C41.6851 15.2708 50.7089 1.44912 52.23 0.741827L52.2452 0.720215C42.367 6.31962 39.0134 16.6834 38.709 21.8703C39.1676 21.8398 39.6222 21.8025 40.091 21.8025C43.5957 21.809 47.036 22.7139 50.0623 24.425C53.0887 26.1361 55.593 28.5925 57.3208 31.5445V31.5464Z" fill="url(#paint3_radial_55_429)"/>
<path d="M40.1118 33.9142C40.0468 34.8612 36.5907 38.1275 35.3822 38.1275C24.2001 38.1275 22.3838 44.6768 22.3838 44.6768C22.879 50.1918 26.8485 54.7361 31.6471 57.1331C31.8662 57.2431 32.0885 57.3423 32.3107 57.4396C32.6956 57.6046 33.0805 57.7572 33.4654 57.8973C35.1123 58.4615 36.8371 58.7837 38.5826 58.8532C58.1868 59.7432 61.9818 36.1608 47.8357 29.3138C51.1726 28.8935 54.5519 29.6878 57.3182 31.5428C55.5904 28.5908 53.0861 26.1344 50.0597 24.4233C47.0334 22.7122 43.5931 21.8073 40.0884 21.8008C39.6217 21.8008 39.165 21.8381 38.7064 21.8686C34.7601 22.1305 30.9871 23.5378 27.8795 25.907C28.4791 26.3982 29.156 27.0544 30.5816 28.415C33.2503 30.9602 40.0945 33.5969 40.1097 33.9063L40.1118 33.9142Z" fill="url(#paint4_radial_55_429)"/>
<path d="M40.1118 33.9142C40.0468 34.8612 36.5907 38.1275 35.3822 38.1275C24.2001 38.1275 22.3838 44.6768 22.3838 44.6768C22.879 50.1918 26.8485 54.7361 31.6471 57.1331C31.8662 57.2431 32.0885 57.3423 32.3107 57.4396C32.6956 57.6046 33.0805 57.7572 33.4654 57.8973C35.1123 58.4615 36.8371 58.7837 38.5826 58.8532C58.1868 59.7432 61.9818 36.1608 47.8357 29.3138C51.1726 28.8935 54.5519 29.6878 57.3182 31.5428C55.5904 28.5908 53.0861 26.1344 50.0597 24.4233C47.0334 22.7122 43.5931 21.8073 40.0884 21.8008C39.6217 21.8008 39.165 21.8381 38.7064 21.8686C34.7601 22.1305 30.9871 23.5378 27.8795 25.907C28.4791 26.3982 29.156 27.0544 30.5816 28.415C33.2503 30.9602 40.0945 33.5969 40.1097 33.9063L40.1118 33.9142Z" fill="url(#paint5_radial_55_429)"/>
<path d="M26.0473 24.6504C26.3659 24.8469 26.6287 25.0178 26.859 25.172C25.963 22.1355 25.9249 18.9219 26.7484 15.8662C23.1207 17.5674 19.8973 19.9793 17.2822 22.949C17.474 22.9441 23.1787 22.8448 26.0473 24.6504Z" fill="url(#paint6_radial_55_429)"/>
<path d="M1.07972 42.136C4.11472 59.4942 20.3693 72.756 38.8167 73.257C55.8943 73.7246 66.8024 64.127 71.3077 54.7691C75.1248 46.6766 75.5632 37.4689 72.5315 29.0707V29.0344C72.5315 29.0059 72.5254 28.9892 72.5315 28.998L72.5386 29.0619C73.9338 37.8805 69.3006 46.4201 62.0566 52.2061L62.0343 52.2552C47.9197 63.3853 34.4139 58.9686 31.6844 57.167C31.4936 57.0786 31.3028 56.9866 31.1121 56.891C22.8838 53.0834 19.4835 45.8297 20.2141 39.6016C18.2609 39.6295 16.3412 39.1084 14.6877 38.1015C13.0342 37.0946 11.7178 35.645 10.898 33.9285C13.0582 32.6474 15.5211 31.9232 18.0523 31.8249C20.5834 31.7265 23.0984 32.2573 25.3576 33.3666C30.0144 35.4129 35.3133 35.6146 40.1217 33.9285C40.1064 33.619 33.2622 30.9814 30.5935 28.4371C29.1679 27.0766 28.4911 26.4213 27.8914 25.9292C27.5673 25.6634 27.2285 25.4148 26.8767 25.1845C26.6433 25.0303 26.3805 24.8633 26.0649 24.6629C23.1963 22.8574 17.4916 22.9566 17.3029 22.9615H17.2846C15.726 21.0488 15.8356 14.7421 15.9249 13.4248C15.4638 13.6042 15.0237 13.8304 14.6119 14.0997C13.236 15.0503 11.9497 16.1171 10.7682 17.2874C9.41691 18.6053 8.18209 20.0304 7.07665 21.5479C4.54854 25.0172 2.75521 28.9359 1.80017 33.0797C1.78089 33.1573 0.383632 39.0711 1.07262 42.138L1.07972 42.136Z" fill="url(#paint7_radial_55_429)"/>
<path d="M53.9119 27.1062C55.3476 28.4714 56.5774 30.0257 57.5648 31.7233C57.781 31.8814 57.9829 32.0386 58.1544 32.1909C67.0706 40.1479 62.3989 51.3959 62.0509 52.1916C69.2939 46.4144 73.923 37.8689 72.5328 29.0474C68.0843 18.3102 60.5389 13.9781 54.3898 4.5573C54.0783 4.08086 53.7668 3.60344 53.4634 3.09949C53.2899 2.81166 53.1509 2.55232 53.0301 2.31361C52.7747 1.83477 52.5779 1.32871 52.4436 0.8057C52.4438 0.781566 52.4348 0.758212 52.4183 0.740093C52.4018 0.721975 52.3791 0.71036 52.3543 0.707464C52.3301 0.701027 52.3045 0.701027 52.2802 0.707464C52.2752 0.707464 52.267 0.716306 52.261 0.71827C52.2549 0.720235 52.2417 0.729076 52.2325 0.733006C50.7115 1.43146 41.6897 15.262 53.917 27.0895L53.9119 27.1062Z" fill="url(#paint8_radial_55_429)"/>
<path d="M58.1527 32.1947C57.9812 32.0424 57.7793 31.8853 57.5631 31.7271C57.483 31.6691 57.4038 31.6112 57.3186 31.5532C54.5523 29.6983 51.173 28.9039 47.8361 29.3243C61.9812 36.1713 58.1861 59.7477 38.583 58.8636C36.8375 58.7941 35.1127 58.472 33.4658 57.9078C33.0809 57.7683 32.696 57.6157 32.3111 57.45C32.0889 57.3518 31.8666 57.2535 31.6475 57.1435L31.6749 57.1602C34.4085 58.9668 47.9102 63.3805 62.0248 52.2484L62.0471 52.1993C62.3992 51.4036 67.0709 40.1557 58.1506 32.1986L58.1527 32.1947Z" fill="url(#paint9_radial_55_429)"/>
<path d="M22.3843 44.6708C22.3843 44.6708 24.1996 38.1214 35.3827 38.1214C36.5912 38.1214 40.0504 34.8551 40.1123 33.9081C35.3039 35.5943 30.005 35.3926 25.3483 33.3462C23.089 32.2369 20.574 31.7062 18.0429 31.8045C15.5118 31.9029 13.0488 32.6271 10.8887 33.9081C11.7085 35.6247 13.0248 37.0742 14.6783 38.0811C16.3319 39.088 18.2515 39.6091 20.2047 39.5812C19.4761 45.8064 22.8754 53.0591 31.1027 56.8706C31.2863 56.9561 31.4588 57.0484 31.6476 57.13C26.845 54.7281 22.8795 50.1857 22.3843 44.6737V44.6708Z" fill="url(#paint10_radial_55_429)"/>
<path d="M76.438 27.0771C74.7293 23.0966 71.263 18.7988 68.5487 17.4403C70.4842 21.069 71.8277 24.966 72.5314 28.9927L72.5385 29.0566C68.092 18.3293 60.5548 13.9971 54.3955 4.57635C54.084 4.09991 53.7725 3.62248 53.4691 3.11854C53.2956 2.83071 53.1566 2.57137 53.0358 2.33265C52.7804 1.85381 52.5836 1.34775 52.4493 0.824743C52.4495 0.800608 52.4405 0.777255 52.424 0.759136C52.4075 0.741018 52.3848 0.729403 52.36 0.726507C52.3358 0.72007 52.3102 0.72007 52.2859 0.726507C52.2809 0.726507 52.2727 0.735349 52.2667 0.737313C52.2606 0.739278 52.2474 0.748119 52.2382 0.752049L52.2535 0.726507C42.3753 6.32592 39.0217 16.6897 38.7172 21.8766C39.1759 21.8461 39.6305 21.8088 40.0993 21.8088C43.6039 21.8153 47.0443 22.7202 50.0706 24.4313C53.0969 26.1424 55.6013 28.5988 57.329 31.5508C54.5628 29.6958 51.1835 28.9015 47.8466 29.3218C61.9916 36.1688 58.1966 59.7453 38.5935 58.8611C36.848 58.7917 35.1231 58.4695 33.4763 57.9053C33.0914 57.7658 32.7065 57.6132 32.3215 57.4475C32.0993 57.3493 31.8771 57.2511 31.6579 57.141L31.6853 57.1577C31.4946 57.0693 31.3038 56.9773 31.113 56.8817C31.2967 56.9672 31.4692 57.0595 31.6579 57.141C26.8553 54.7382 22.8898 50.1958 22.3946 44.6848C22.3946 44.6848 24.21 38.1355 35.3931 38.1355C36.6016 38.1355 40.0607 34.8692 40.1226 33.9222C40.1074 33.6127 33.2632 30.9751 30.5945 28.4308C29.1688 27.0703 28.492 26.415 27.8923 25.9229C27.5682 25.6571 27.2295 25.4085 26.8776 25.1782C25.9816 22.1417 25.9434 18.9281 26.767 15.8724C23.1393 17.5737 19.9159 19.9855 17.3008 22.9552H17.2825C15.724 21.0425 15.8335 14.7358 15.9228 13.4185C15.4618 13.5979 15.0216 13.8241 14.6098 14.0934C13.2339 15.044 11.9476 16.1108 10.7661 17.2811C9.41966 18.6027 8.18993 20.0311 7.0898 21.5514C4.56169 25.0207 2.76836 28.9394 1.81332 33.0832L1.76055 33.3347C1.68648 33.6697 1.35467 35.3711 1.30698 35.7366C1.00348 37.4929 0.809654 39.2653 0.726562 41.0442V41.2407C0.743943 50.7681 4.45012 59.943 11.1135 66.9542C17.7768 73.9655 26.9132 78.3035 36.7189 79.1121C46.5246 79.9206 56.2871 77.1409 64.0792 71.3216C71.8714 65.5023 77.1269 57.0663 78.8084 47.679C78.8743 47.1879 78.9281 46.7016 78.987 46.2055C79.797 39.7238 78.9201 33.149 76.436 27.0791L76.438 27.0771Z" fill="url(#paint11_linear_55_429)"/>
</g>
<defs>
<linearGradient id="paint0_linear_55_429" x1="71.2326" y1="12.888" x2="7.98498" y2="75.9211" gradientUnits="userSpaceOnUse">
<stop offset="0.048" stop-color="#FFF44F"/>
<stop offset="0.111" stop-color="#FFE847"/>
<stop offset="0.225" stop-color="#FFC830"/>
<stop offset="0.368" stop-color="#FF980E"/>
<stop offset="0.401" stop-color="#FF8B16"/>
<stop offset="0.462" stop-color="#FF672A"/>
<stop offset="0.534" stop-color="#FF3647"/>
<stop offset="0.705" stop-color="#E31587"/>
</linearGradient>
<radialGradient id="paint1_radial_55_429" cx="0" cy="0" r="1" gradientUnits="userSpaceOnUse" gradientTransform="translate(68.7057 9.56147) scale(81.9885 79.3741)">
<stop offset="0.129" stop-color="#FFBD4F"/>
<stop offset="0.186" stop-color="#FFAC31"/>
<stop offset="0.247" stop-color="#FF9D17"/>
<stop offset="0.283" stop-color="#FF980E"/>
<stop offset="0.403" stop-color="#FF563B"/>
<stop offset="0.467" stop-color="#FF3750"/>
<stop offset="0.71" stop-color="#F5156C"/>
<stop offset="0.782" stop-color="#EB0878"/>
<stop offset="0.86" stop-color="#E50080"/>
</radialGradient>
<radialGradient id="paint2_radial_55_429" cx="0" cy="0" r="1" gradientUnits="userSpaceOnUse" gradientTransform="translate(38.2645 41.9791) scale(81.9885 79.3741)">
<stop offset="0.3" stop-color="#960E18"/>
<stop offset="0.351" stop-color="#B11927" stop-opacity="0.74"/>
<stop offset="0.435" stop-color="#DB293D" stop-opacity="0.343"/>
<stop offset="0.497" stop-color="#F5334B" stop-opacity="0.094"/>
<stop offset="0.53" stop-color="#FF3750" stop-opacity="0"/>
</radialGradient>
<radialGradient id="paint3_radial_55_429" cx="0" cy="0" r="1" gradientUnits="userSpaceOnUse" gradientTransform="translate(48.4116 -8.12096) scale(59.3909 57.4971)">
<stop offset="0.132" stop-color="#FFF44F"/>
<stop offset="0.252" stop-color="#FFDC3E"/>
<stop offset="0.506" stop-color="#FF9D12"/>
<stop offset="0.526" stop-color="#FF980E"/>
</radialGradient>
<radialGradient id="paint4_radial_55_429" cx="0" cy="0" r="1" gradientUnits="userSpaceOnUse" gradientTransform="translate(29.1326 62.6087) scale(39.0358 37.7911)">
<stop offset="0.353" stop-color="#3A8EE6"/>
<stop offset="0.472" stop-color="#5C79F0"/>
<stop offset="0.669" stop-color="#9059FF"/>
<stop offset="1" stop-color="#C139E6"/>
</radialGradient>
<radialGradient id="paint5_radial_55_429" cx="0" cy="0" r="1" gradientUnits="userSpaceOnUse" gradientTransform="translate(42.2305 35.1657) rotate(-13.1735) scale(20.6643 23.5027)">
<stop offset="0.206" stop-color="#9059FF" stop-opacity="0"/>
<stop offset="0.278" stop-color="#8C4FF3" stop-opacity="0.064"/>
<stop offset="0.747" stop-color="#7716A8" stop-opacity="0.45"/>
<stop offset="0.975" stop-color="#6E008B" stop-opacity="0.6"/>
</radialGradient>
<radialGradient id="paint6_radial_55_429" cx="0" cy="0" r="1" gradientUnits="userSpaceOnUse" gradientTransform="translate(37.2497 6.61441) scale(28.0871 27.1915)">
<stop stop-color="#FFE226"/>
<stop offset="0.121" stop-color="#FFDB27"/>
<stop offset="0.295" stop-color="#FFC82A"/>
<stop offset="0.502" stop-color="#FFA930"/>
<stop offset="0.732" stop-color="#FF7E37"/>
<stop offset="0.792" stop-color="#FF7139"/>
</radialGradient>
<radialGradient id="paint7_radial_55_429" cx="0" cy="0" r="1" gradientUnits="userSpaceOnUse" gradientTransform="translate(59.5736 -11.0682) scale(119.837 116.016)">
<stop offset="0.113" stop-color="#FFF44F"/>
<stop offset="0.456" stop-color="#FF980E"/>
<stop offset="0.622" stop-color="#FF5634"/>
<stop offset="0.716" stop-color="#FF3647"/>
<stop offset="0.904" stop-color="#E31587"/>
</radialGradient>
<radialGradient id="paint8_radial_55_429" cx="0" cy="0" r="1" gradientUnits="userSpaceOnUse" gradientTransform="translate(49.6136 -4.63555) rotate(83.7791) scale(85.0494 57.6132)">
<stop stop-color="#FFF44F"/>
<stop offset="0.06" stop-color="#FFE847"/>
<stop offset="0.168" stop-color="#FFC830"/>
<stop offset="0.304" stop-color="#FF980E"/>
<stop offset="0.356" stop-color="#FF8B16"/>
<stop offset="0.455" stop-color="#FF672A"/>
<stop offset="0.57" stop-color="#FF3647"/>
<stop offset="0.737" stop-color="#E31587"/>
</radialGradient>
<radialGradient id="paint9_radial_55_429" cx="0" cy="0" r="1" gradientUnits="userSpaceOnUse" gradientTransform="translate(37.2497 16.4378) scale(74.8043 72.419)">
<stop offset="0.137" stop-color="#FFF44F"/>
<stop offset="0.48" stop-color="#FF980E"/>
<stop offset="0.592" stop-color="#FF5634"/>
<stop offset="0.655" stop-color="#FF3647"/>
<stop offset="0.904" stop-color="#E31587"/>
</radialGradient>
<radialGradient id="paint10_radial_55_429" cx="0" cy="0" r="1" gradientUnits="userSpaceOnUse" gradientTransform="translate(56.5292 20.3674) scale(81.8768 79.266)">
<stop offset="0.094" stop-color="#FFF44F"/>
<stop offset="0.231" stop-color="#FFE141"/>
<stop offset="0.509" stop-color="#FFAF1E"/>
<stop offset="0.626" stop-color="#FF980E"/>
</radialGradient>
<linearGradient id="paint11_linear_55_429" x1="70.4411" y1="12.5638" x2="16.6957" y2="68.0896" gradientUnits="userSpaceOnUse">
<stop offset="0.167" stop-color="#FFF44F" stop-opacity="0.8"/>
<stop offset="0.266" stop-color="#FFF44F" stop-opacity="0.634"/>
<stop offset="0.489" stop-color="#FFF44F" stop-opacity="0.217"/>
<stop offset="0.6" stop-color="#FFF44F" stop-opacity="0"/>
</linearGradient>
<clipPath id="clip0_55_429">
<rect width="80" height="80" fill="white"/>
</clipPath>
</defs>
</svg>
