<svg width="32" height="32" viewBox="0 0 32 32" fill="none" xmlns="http://www.w3.org/2000/svg">
<path d="M16 20C18.2092 20 20 18.2092 20 16C20 13.7908 18.2092 12 16 12C13.7908 12 12 13.7908 12 16C12 18.2092 13.7908 20 16 20Z" stroke="currentColor" stroke-width="2.66667" stroke-linecap="round" stroke-linejoin="round"/>
<path d="M26.163 13.8606L24.6994 10.3264L26.6665 8.00002L23.9998 5.33335L21.6861 7.31062L18.0769 5.82634L17.2469 2.66669H14.6412L13.7986 5.86819L10.2724 7.35463L7.99984 5.33335L5.33317 8.00002L7.271 10.3852L5.82984 13.9284L2.6665 14.6667V17.3334L5.86798 18.2074L7.35417 21.733L5.33317 24L7.99984 26.6667L10.3881 24.7204L13.8625 26.1498L14.6665 29.3334H17.3332L18.1392 26.151L21.6733 24.6874C22.2624 25.1084 23.9998 26.6667 23.9998 26.6667L26.6665 24L24.6877 21.6659L26.1517 18.1307L29.333 17.303L29.3332 14.6667L26.163 13.8606Z" stroke="currentColor" stroke-width="2.66667" stroke-linecap="round" stroke-linejoin="round"/>
</svg>
